<svg width="49" height="14" viewBox="0 0 49 14" fill="none" xmlns="http://www.w3.org/2000/svg">
<path d="M5.88007 0H2.06876C1.80795 0 1.58615 0.188648 1.54546 0.444988L0.00400114 10.1753C-0.0266498 10.3673 0.122703 10.5404 0.318312 10.5404H2.13786C2.39868 10.5404 2.62048 10.3518 2.66116 10.0949L3.0769 7.47047C3.11702 7.21357 3.33938 7.02492 3.59964 7.02492H4.80617C7.31676 7.02492 8.76571 5.81536 9.14411 3.41842C9.31464 2.36975 9.15136 1.54581 8.65816 0.968764C8.11647 0.335128 7.1557 0 5.88007 0ZM6.31977 3.5538C6.11134 4.91539 5.06642 4.91539 4.05606 4.91539H3.48093L3.88441 2.37253C3.90838 2.21884 4.04212 2.10565 4.19817 2.10565H4.46176C5.15002 2.10565 5.79926 2.10565 6.13475 2.49626C6.33481 2.7293 6.39612 3.07552 6.31977 3.5538Z" transform="translate(0 0.00634766)" fill="#253B80"/>
<path d="M8.63241 0.170893H6.80728C6.6518 0.170893 6.51749 0.284082 6.49353 0.437774L6.41272 0.946015L6.2851 0.761806C5.88998 0.190868 5.00891 0 4.1295 0C2.11267 0 0.390087 1.52084 0.0545988 3.65423C-0.119833 4.71842 0.12816 5.73601 0.734491 6.44566C1.29067 7.09817 2.08648 7.37004 3.03331 7.37004C4.65837 7.37004 5.55951 6.3297 5.55951 6.3297L5.47815 6.83461C5.44749 7.0277 5.59685 7.20081 5.79134 7.20081H7.43535C7.69672 7.20081 7.9174 7.01216 7.95864 6.75527L8.94505 0.535982C8.97625 0.34456 8.82746 0.170893 8.63241 0.170893ZM6.08838 3.70749C5.91227 4.74561 5.0847 5.4425 4.02919 5.4425C3.49921 5.4425 3.07567 5.27327 2.80371 4.95257C2.53398 4.63409 2.43144 4.18078 2.51726 3.67586C2.68166 2.64662 3.52317 1.92699 4.56252 1.92699C5.0808 1.92699 5.50211 2.09843 5.77964 2.42191C6.05773 2.74871 6.16807 3.2048 6.08838 3.70749Z" transform="translate(8.64062 3.34521)" fill="#253B80"/>
<path d="M8.50348 0H6.66944C6.49445 0 6.33005 0.0865561 6.23085 0.231371L3.70131 3.94108L2.62908 0.376187C2.56165 0.153138 2.3549 0 2.12083 0H0.318558C0.0995435 0 -0.0525968 0.213062 0.0170644 0.418355L2.03724 6.32082L0.137998 8.99019C-0.0113558 9.20048 0.139115 9.48956 0.39714 9.48956H2.22895C2.40282 9.48956 2.56555 9.40522 2.66419 9.26318L8.76429 0.496589C8.9103 0.286856 8.76039 0 8.50348 0Z" transform="translate(18.4902 3.51562)" fill="#253B80"/>
<path d="M5.88007 0H2.06821C1.80795 0 1.58615 0.188648 1.54547 0.444988L0.00400184 10.1753C-0.0266491 10.3673 0.122707 10.5404 0.317201 10.5404H2.27329C2.45496 10.5404 2.61045 10.4084 2.63887 10.2286L3.07634 7.47047C3.11647 7.21357 3.33883 7.02492 3.59908 7.02492H4.80506C7.31621 7.02492 8.7646 5.81536 9.14356 3.41842C9.31465 2.36975 9.15025 1.54581 8.65704 0.968764C8.11592 0.335128 7.1557 0 5.88007 0ZM6.31977 3.5538C6.1119 4.91539 5.06698 4.91539 4.05606 4.91539H3.48149L3.88553 2.37253C3.90949 2.21884 4.04213 2.10565 4.19872 2.10565H4.46232C5.15002 2.10565 5.79982 2.10565 6.13531 2.49626C6.33537 2.7293 6.39612 3.07552 6.31977 3.5538Z" transform="translate(27.1855 0.00585938)" fill="#179BD7"/>
<path d="M8.63002 0.170893H6.80601C6.64942 0.170893 6.51622 0.284082 6.49282 0.437774L6.41201 0.946015L6.28383 0.761806C5.88871 0.190868 5.0082 0 4.12879 0C2.11196 0 0.389931 1.52084 0.0544428 3.65423C-0.119432 4.71842 0.127449 5.73601 0.73378 6.44566C1.29107 7.09817 2.08577 7.37004 3.0326 7.37004C4.65766 7.37004 5.5588 6.3297 5.5588 6.3297L5.47743 6.83461C5.44678 7.0277 5.59614 7.20081 5.79175 7.20081H7.43519C7.69545 7.20081 7.91725 7.01216 7.95793 6.75527L8.94489 0.535982C8.97499 0.34456 8.82563 0.170893 8.63002 0.170893ZM6.086 3.70749C5.91101 4.74561 5.08232 5.4425 4.02681 5.4425C3.49794 5.4425 3.07328 5.27327 2.80133 4.95257C2.5316 4.63409 2.43017 4.18078 2.51488 3.67586C2.68039 2.64662 3.52079 1.92699 4.56013 1.92699C5.07841 1.92699 5.49973 2.09843 5.77726 2.42191C6.05646 2.74871 6.1668 3.2048 6.086 3.70749Z" transform="translate(35.8281 3.34521)" fill="#179BD7"/>
<path d="M1.56831 0.267436L0.00400184 10.1759C-0.0266491 10.3679 0.122707 10.541 0.317201 10.541H1.88987C2.15124 10.541 2.37304 10.3523 2.41317 10.0955L3.95575 0.365644C3.9864 0.173667 3.83704 0 3.64255 0H1.88151C1.72603 0.000554848 1.59228 0.113744 1.56831 0.267436Z" transform="translate(45.041 0.00537109)" fill="#179BD7"/>
</svg>
