<svg id="Layer_1" data-name="Layer 1" xmlns="http://www.w3.org/2000/svg" xmlns:xlink="http://www.w3.org/1999/xlink" width="32" height="32" viewBox="0 0 32 32"><defs><style>.cls-1{fill:none;}.cls-2{clip-path:url(#clip-path);}.cls-3{fill:#4267b2;}</style><clipPath id="clip-path"><rect class="cls-1" width="32" height="32" rx="7.4"/></clipPath></defs><g class="cls-2"><path class="cls-3" d="M32,1.8V30.2h0A1.8,1.8,0,0,1,30.2,32H22.1V19.6h4.2l.6-4.8H22.1V11.7c0-1.4.4-2.4,2.4-2.4H27V5l-3.7-.2c-3.7,0-6.2,2.3-6.2,6.4v3.6H12.9v4.8h4.2V32H1.8A1.8,1.8,0,0,1,0,30.2V1.8A1.8,1.8,0,0,1,1.8,0H30.2A1.8,1.8,0,0,1,32,1.8Z"/></g></svg>