<svg id="Layer_1" data-name="Layer 1" xmlns="http://www.w3.org/2000/svg" xmlns:xlink="http://www.w3.org/1999/xlink" width="32" height="32" viewBox="0 0 32 32"><defs><style>.cls-1{fill:none;}.cls-2{clip-path:url(#clip-path);}.cls-3{fill:url(#linear-gradient);}</style><clipPath id="clip-path"><rect class="cls-1" width="32" height="32" rx="7.4"/></clipPath><linearGradient id="linear-gradient" x1="2.68" y1="1.66" x2="29.4" y2="30.38" gradientUnits="userSpaceOnUse"><stop offset="0" stop-color="#fd5"/><stop offset="0.5" stop-color="#ff543e"/><stop offset="1" stop-color="#c837ab"/></linearGradient></defs><g class="cls-2"><path class="cls-3" d="M15,6.3h0c-7.9.1-8.6.2-8.6,9.7s.3,9.7,9.6,9.7c5.2,0,9.4.6,9.6-4.9C26.3,5.2,25.1,6.3,15,6.3Zm1,15.8A6.1,6.1,0,0,1,10,16a6.1,6.1,0,0,1,12.1,0A6.1,6.1,0,0,1,16,22.1Zm6.3-11a1.4,1.4,0,0,1,0-2.8,1.4,1.4,0,1,1,0,2.8Zm-6.3,1c-5.2,0-5.1,7.8,0,7.8S21.2,12.1,16,12.1ZM15,6.3h0c-7.9.1-8.6.2-8.6,9.7s.3,9.7,9.6,9.7c5.2,0,9.4.6,9.6-4.9C26.3,5.2,25.1,6.3,15,6.3Zm1,15.8A6.1,6.1,0,0,1,10,16a6.1,6.1,0,0,1,12.1,0A6.1,6.1,0,0,1,16,22.1Zm6.3-11a1.4,1.4,0,0,1,0-2.8,1.4,1.4,0,1,1,0,2.8Zm-6.3,1c-5.2,0-5.1,7.8,0,7.8S21.2,12.1,16,12.1ZM32,7A6.9,6.9,0,0,0,26,.2H21.2C7.7.1,4.8-.5,2.1,2.2S.1,7.6.1,16-1.1,30,5.2,31.6c2,.5,19.7.5,21.7,0S31.7,28.8,32,25ZM27.2,23.7c-1.8,4.6-6.5,4.1-11.2,4.1s-9.4.4-11.1-4.1c-.7-1.8-.6-4.7-.6-7.7s-.1-5.9.6-7.7C6.6,3.8,11.2,4.2,16,4.2h0c4.5,0,7.6-.3,9.8,2s2,5.2,2,9.8S27.9,21.8,27.2,23.7ZM15,6.3h0c-7.9.1-8.6.2-8.6,9.7s.3,9.7,9.6,9.7c5.2,0,9.4.6,9.6-4.9C26.3,5.2,25.1,6.3,15,6.3Zm1,15.8A6.1,6.1,0,0,1,10,16a6.1,6.1,0,0,1,12.1,0A6.1,6.1,0,0,1,16,22.1Zm6.3-11a1.4,1.4,0,0,1,0-2.8,1.4,1.4,0,1,1,0,2.8Zm-6.3,1c-5.2,0-5.1,7.8,0,7.8S21.2,12.1,16,12.1Z"/></g></svg>