<svg id="Layer_1" data-name="Layer 1" xmlns="http://www.w3.org/2000/svg" xmlns:xlink="http://www.w3.org/1999/xlink" width="32" height="32" viewBox="0 0 32 32"><defs><style>.cls-1{fill:none;}.cls-2{clip-path:url(#clip-path);}.cls-3{fill:red;}.cls-4{fill:#fff;}</style><clipPath id="clip-path"><rect class="cls-1" width="32" height="32" rx="7.4"/></clipPath></defs><g class="cls-2"><rect class="cls-3" y="11.2" width="32" height="9.59"/><path class="cls-3" d="M0,20.8a39.8,39.8,0,0,0,.7,7.7,3.8,3.8,0,0,0,2.8,2.8C6,32,16,32,16,32s10,0,12.5-.7a3.7,3.7,0,0,0,2.8-2.8,39.8,39.8,0,0,0,.7-7.7H0Z"/><path class="cls-3" d="M31.3,3.5A3.8,3.8,0,0,0,28.5.7C26,0,16,0,16,0S6,0,3.5.7A3.7,3.7,0,0,0,.7,3.5,39.8,39.8,0,0,0,0,11.2H32A37.7,37.7,0,0,0,31.3,3.5Z"/><path class="cls-4" d="M11.6,22.2,22.4,16,11.6,9.8Z"/></g></svg>