<svg width="42" height="46" viewBox="0 0 42 46" fill="none" xmlns="http://www.w3.org/2000/svg">
<path d="M21.2507 0.885132L21.515 1.0174L21.8453 1.21581C21.9114 1.28195 22.0435 1.34809 22.1756 1.41422C22.4399 1.54649 22.8362 1.7449 23.2326 1.94331C24.3557 2.53854 25.6769 3.06763 27.1303 3.59671C31.2922 5.11785 35.7845 6.04375 40.4089 6.04375H41.7301V7.36648C41.7301 21.2551 38.2288 30.5803 31.8207 37.8553C31.7547 37.9214 31.6225 38.0537 31.5565 38.1198C29.3764 40.5007 27.0642 42.3525 24.7521 43.7414C23.9593 44.2043 23.1666 44.6011 22.5059 44.8657C22.1096 45.0641 21.7792 45.1302 21.5811 45.1964L21.1847 45.3286L20.9865 45.2625L20.7883 45.1964C20.5901 45.1302 20.3259 44.998 19.9295 44.8657C19.2689 44.6011 18.4761 44.2043 17.6834 43.7414C15.3712 42.3525 13.059 40.5668 10.8789 38.1198C10.8129 38.0537 10.6808 37.9214 10.6147 37.8553C4.20663 30.5803 0.705322 21.3212 0.705322 7.43261V6.10989H2.02657C6.65094 6.10989 11.1432 5.18398 15.3051 3.66285C16.7585 3.13376 18.0797 2.53854 19.2028 2.00945C19.5992 1.81104 19.9295 1.61263 20.2598 1.48036C20.458 1.41422 20.5241 1.28195 20.6562 1.28195L21.2507 0.885132Z" fill="#5E6DF2"/>
<path d="M25.5443 11.1413L24.1707 14.5296L27.4673 15.9817L28.9096 12.5935L25.5443 11.1413Z" fill="white"/>
<path d="M20.737 26.1466H20.6684L16.6849 18.6094H13.5256V32.5083H16.6162V24.6253L19.7068 29.9498H21.6986L24.7205 24.6253V32.5083H27.8798V18.6094H24.7205L20.737 26.1466Z" fill="white"/>
</svg>
