<svg height="49" viewBox="0 0 30 49" width="30" xmlns="http://www.w3.org/2000/svg"><g fill="none" fill-rule="evenodd" transform="translate(1 1)"><path d="m8.44.35 16.88 2.08c.75.16 1.53.57 1.96 1.27.44.63.6 1.36.52 2.05l-4.8 38.95c-.16.81-.57 1.47-1.21 1.97s-1.37.67-2.13.64l-16.81-2.08c-.81-.16-1.59-.65-2.02-1.34-.44-.63-.6-1.36-.52-2.05l4.8-38.88c.16-.75.5-1.48 1.13-1.91.7-.5 1.5-.72 2.2-.7z" fill="#fff" fill-rule="nonzero" stroke="#000" stroke-width="1.264"/><path d="m-1.443889 12.051111h31.210211v22.290151h-31.210211z" fill="#f47900" fill-rule="nonzero" transform="matrix(.12229917 -.99249328 .99249328 .12229917 -10.592747 34.414224)"/><g stroke="#000"><path d="m8.44.35 16.88 2.08c.75.16 1.53.57 1.96 1.27.44.63.6 1.36.52 2.05l-4.8 38.95c-.16.81-.57 1.47-1.21 1.97s-1.37.67-2.13.64l-16.81-2.08c-.81-.16-1.59-.65-2.02-1.34-.44-.63-.6-1.36-.52-2.05l4.8-38.88c.16-.75.5-1.48 1.13-1.91.7-.5 1.5-.72 2.2-.7z" stroke-width="1.264"/><path d="m12.74 42.6c-.06.51-.56.89-1.07.83s-.89-.56-.83-1.07.56-.89 1.07-.83c.5.06.89.56.83 1.07z"/><path d="m19.49 4.99-5.94-.73" stroke-linecap="round" stroke-width="1.264"/><path d="m27.44 9.24-22.76-2.81" stroke-width="1.264"/><path d="m23.28 40.37-22.76-2.81" stroke-width="1.264"/></g><path d="m19.6 14.65-1.53 2.5 2.5 1.53 1.53-2.5z" fill="#fff" fill-rule="nonzero"/><path d="m13.84 25.8 4-5.57 2.46.37-1.68 11.16-2.43-.37.96-6.37h-.03l-2.99 3.95-1.57-.24-1.69-4.65h-.03l-.96 6.36-2.43-.37 1.68-11.15 2.46.37 2.19 6.51z" fill="#fff" fill-rule="nonzero"/></g></svg>