<?xml version="1.0" encoding="utf-8"?>
<!-- Generator: Adobe Illustrator 20.1.0, SVG Export Plug-In . SVG Version: 6.00 Build 0)  -->
<svg version="1.1" id="Layer_1" xmlns="http://www.w3.org/2000/svg" xmlns:xlink="http://www.w3.org/1999/xlink" x="0px" y="0px"
	 viewBox="0 0 255 595" style="enable-background:new 0 0 255 595;" xml:space="preserve">
<style type="text/css">
	.st0{fill:#919191;}
	.st1{fill:#5E5F5F;}
	.st2{fill:#FFFFFF;}
</style>
<g>
	<path class="st0" d="M85.5,27.1c-1.5-1.1-3.6-1.7-6.3-1.7h-9.7c-0.8,0-1.1,0.4-1.3,1.1l-4.2,25.6c0,0.2,0,0.4,0.2,0.6
		c0.2,0.4,0.4,0.4,0.6,0.4h4.8c0.8,0,1.3-0.4,1.3-1.1l1.1-6.8c0-0.4,0.2-0.6,0.6-0.8c0.2-0.2,0.4-0.4,0.8-0.4
		c0.4-0.2,0.8-0.2,1.1-0.2h1.1c0.6,0.2,0.8,0.2,1,0.2c3.6,0,6.3-1.1,8.4-3c2.1-2.1,3-4.8,3-8.4C88,30,87.2,28.3,85.5,27.1z
		 M80.4,34.8c-0.2,1.5-0.8,2.5-1.5,2.9c-1,0.4-2.1,0.8-3.8,0.8h-2.1l1.1-6.7c0-0.4,0.4-0.8,0.8-0.8h1.1c1.7,0,3,0.4,3.6,0.8
		C80.4,32.3,80.8,33.2,80.4,34.8z"/>
	<path class="st0" d="M191.2,25.4h-4.6c-0.6,0-0.8,0.2-1,0.8l-4,26v0.2c0,0.2,0,0.4,0.2,0.6c0.2,0.2,0.4,0.2,0.6,0.2h4.2
		c0.8,0,1.1-0.4,1.3-1.1l4-25.6C192,25.8,191.8,25.4,191.2,25.4z"/>
	<path class="st0" d="M135.2,35.5c0-0.2,0-0.4-0.2-0.6c-0.2-0.1-0.4-0.3-0.6-0.3h-4.8c-0.6,0-0.8,0.2-1.1,0.8l-6.7,9.7l-2.7-9.3
		c-0.1-0.9-0.7-1.2-1.2-1.2H113c-0.2,0-0.4,0.2-0.6,0.4c-0.1,0.1-0.1,0.3-0.1,0.5c0,0,0.4,1.3,1.1,3.6c1,2.5,1.7,4.9,2.7,7.6
		c1,2.9,1.5,4.2,1.5,4.4c-3.4,4.8-5.1,7.2-5.1,7.6c0,0.4,0.2,0.8,0.8,0.8h4.8c0.6,0,1-0.2,1.1-0.6l16.1-23.1v-0.4H135.2z"/>
	<path class="st0" d="M180.1,34.6h-4.8c-0.6,0-1,0.8-1.1,2.1c-1-1.7-3-2.5-5.9-2.5s-5.5,1.1-7.6,3.4c-2.1,2.1-3,4.8-3,7.8
		c0,2.5,0.8,4.4,2.1,5.9c1.5,1.5,3.4,2.1,5.7,2.1c1.3,0,2.5-0.2,3.8-0.8c1.1-0.4,2.1-1.1,2.9-1.9c0,0,0,0.2-0.2,0.6v0.8
		c0,0.6,0.2,1,0.8,1h4.4c0.8,0,1.1-0.4,1.3-1.1l2.5-16.3c0-0.4,0-0.6-0.2-0.8C180.6,34.8,180.3,34.6,180.1,34.6z M171.9,47
		c-1,1-2.3,1.5-3.8,1.5c-1.1,0-2.1-0.4-2.9-1c-0.8-0.8-1.1-1.7-1.1-2.9c0-1.5,0.6-2.9,1.5-3.8c1-1.1,2.3-1.7,3.8-1.7
		c1.1,0,2.1,0.4,2.9,1.1c1,0.6,1.3,1.5,1.3,2.9C173.6,44.7,173,45.9,171.9,47z"/>
	<path class="st0" d="M109,34.6h-4.7c-0.6,0-1,0.8-1,2.1c-1.1-1.7-3-2.5-5.9-2.5c-3,0-5.5,1.1-7.6,3.4c-2.1,2.1-3.2,4.8-3.2,7.8
		c0,2.5,0.8,4.4,2.1,5.9c1.5,1.5,3.4,2.1,5.9,2.1c1.1,0,2.3-0.2,3.6-0.8c1.1-0.4,2.1-1.1,2.9-1.9c-0.2,0.6-0.2,1-0.2,1.3
		c0,0.6,0.2,1,0.8,1h4.4c0.8,0,1.1-0.4,1.3-1.1l2.5-16.3c0.2-0.4,0-0.6,0-0.8C109.6,34.8,109.4,34.6,109,34.6z M101,47
		c-1.1,1-2.5,1.5-4,1.5c-1.1,0-2.1-0.4-2.9-1c-0.8-0.8-1.1-1.7-1.1-2.9c0-1.5,0.6-2.9,1.5-3.8c1.1-1.1,2.5-1.7,4-1.7
		c1.1,0,2.1,0.4,2.9,1.1c0.8,0.6,1.1,1.5,1.1,2.9C102.6,44.7,102,46.1,101,47z"/>
	<path class="st0" d="M156.6,27.1c-1.5-1.1-3.6-1.7-6.3-1.7h-9.9c-0.8,0-1.3,0.4-1.3,1.1l-4,25.6c-0.2,0.2,0,0.4,0.2,0.6
		c0.2,0.4,0.4,0.4,0.6,0.4h5.1c0.4,0,0.8-0.2,1-0.8l1.1-7.2c0-0.4,0.2-0.6,0.4-0.8c0.2-0.2,0.6-0.4,1-0.4c0.4-0.2,0.8-0.2,1.1-0.2
		h1.1c0.4,0.2,0.8,0.2,0.8,0.2c3.6,0,6.5-1.1,8.6-3c1.9-2.1,3-4.8,3-8.4C159,30,158.1,28.3,156.6,27.1z M150.3,37.4
		c-1,0.6-2.3,1-4.2,1H144l1.1-6.7c0-0.6,0.4-0.8,0.8-0.8h1.1c1,0,1.7,0.2,2.3,0.2c0.4,0,1,0.4,1.5,0.8c0.4,0.4,0.8,1.1,0.8,1.9
		C151.6,35.5,151.1,36.7,150.3,37.4z"/>
</g>
<g>
	<path class="st0" d="M113.6,142.1l5-28.8h7.8l-4.9,28.8H113.6z M149.9,113.9c-1.5-0.6-4-1.3-7-1.3c-7.6,0-13.1,4-13.3,9.5
		c0,4.1,4,6.4,6.9,7.8c3.1,1.5,4.1,2.3,4.1,3.7c0,1.9-2.5,2.8-4.7,2.8c-3.2,0-4.8-0.4-7.3-1.6l-1-0.4l-1.2,6.4
		c1.9,0.9,5.3,1.5,8.8,1.6c8.2,0,13.6-4,13.7-9.8c0-3.4-2.1-5.9-6.6-7.9c-2.8-1.3-4.4-2.2-4.4-3.5c0-1.2,1.3-2.5,4.4-2.5
		c2.6,0,4.4,0.6,5.9,1.2l0.7,0.3L149.9,113.9 M170.2,113.2h-6.2c-1.8,0-3.2,0.6-4.1,2.5l-11.6,26.3h8.2c0,0,1.3-3.5,1.6-4.2h10.1
		c0.1,1,0.9,4.2,0.9,4.2h7.3L170.2,113.2z M160.4,131.9c0.7-1.6,3.1-8.1,3.1-8.1c0,0.1,0.7-1.6,1.2-2.8l0.4,2.5c0,0,1.5,6.9,1.8,8.4
		H160.4z M107,113.2l-7.6,19.7l-0.9-4c-1.5-4.5-5.9-9.5-10.8-12l7,25.2h8.2l12.4-28.8H107"/>
	<path class="st1" d="M92.1,113.2H79.5l-0.1,0.7c9.8,2.3,16.4,8.1,19.1,15l-2.8-13.3C95.3,113.9,94,113.3,92.1,113.2"/>
</g>
<g>
	<path class="st0" d="M137.2,212.6c0,15.5-12.5,28-28.2,28c-15.5,0-28-12.5-28-28c0-15.7,12.5-28.2,28-28.2
		C124.5,184.3,137.2,196.8,137.2,212.6"/>
	<path class="st0" d="M146.7,184.3c-7.2,0-13.8,2.8-18.8,7.2c-0.9,0.9-2,2-2.8,3h5.6c0.8,0.9,1.6,2,2.2,3h-10c-0.6,1.1-1.1,2-1.6,3
		h13.2c0.5,1.1,0.9,2,1.3,3H120c-0.3,1.1-0.6,2-0.8,3h17.2c0.5,2,0.6,3.9,0.6,6c0,3.1-0.5,6.3-1.4,9.1h-15.7c0.3,0.9,0.8,1.9,1.3,3
		h13.2c-0.5,0.9-0.9,1.9-1.6,3h-10c0.6,0.9,1.4,2,2.2,3h5.6c-0.8,0.9-1.9,2-2.8,3c5,4.4,11.6,7.2,18.8,7.2
		c15.7,0,28.2-12.5,28.2-28.2C174.9,196.8,162.4,184.3,146.7,184.3"/>
	<path class="st1" d="M171.2,228.3c0-0.6,0.5-0.9,0.9-0.9c0.4,0,0.9,0.3,0.9,0.9c0,0.5-0.5,0.8-0.9,0.8
		C171.7,229.1,171.2,228.7,171.2,228.3z M172.1,228.9c0.3,0,0.6-0.3,0.6-0.6c0-0.5-0.3-0.8-0.6-0.8c-0.5,0-0.8,0.3-0.8,0.8
		C171.3,228.6,171.6,228.9,172.1,228.9z M171.9,228.6h-0.2v-0.8h0.5c0.2,0.2,0.2,0.2,0.2,0.3c0,0,0,0.2-0.2,0.2l0.2,0.3h-0.2
		l-0.2-0.3h-0.2v0.3H171.9z M171.9,228.1h0.3c0-0.2,0-0.2-0.2-0.2h-0.2v0.2H171.9z M102.4,215.6h-0.8c-1.7,0-2.5,0.6-2.5,1.7
		c0,0.8,0.3,1.3,1.1,1.3C101.5,218.6,102.3,217.3,102.4,215.6z M104.6,220.8h-2.5v-1.3c-0.8,1.1-1.9,1.4-3.1,1.4
		c-1.7,0-2.8-1.3-2.8-3.1c0-2.8,1.9-4.4,5.3-4.4h1.3c0.2-0.3,0.2-0.5,0.2-0.8c0-0.6-0.6-0.9-2-0.9s-2.7,0.3-3.1,0.5
		c0-0.2,0.3-2.7,0.3-2.7c1.6-0.3,2.5-0.6,3.8-0.6c2.5,0,3.9,1.3,3.9,3.4c0,0.6,0,1.4-0.2,2.3C105.3,216.4,104.6,220,104.6,220.8z
		 M94.9,220.8h-3.1l1.7-11l-3.9,11h-2L87.3,210l-1.7,10.8h-3l2.5-14.3h4.4l0.2,8l2.8-8h4.9L94.9,220.8 M150.6,215.6h-0.8
		c-1.7,0-2.5,0.6-2.5,1.7c0,0.8,0.3,1.3,1.1,1.3C149.7,218.6,150.5,217.3,150.6,215.6z M152.8,220.8h-2.5v-1.3
		c-0.8,1.1-1.9,1.4-3.1,1.4c-1.7,0-2.8-1.3-2.8-3.1c0-2.8,1.9-4.4,5.3-4.4h1.3c0.2-0.3,0.2-0.5,0.2-0.8c0-0.6-0.6-0.9-2-0.9
		c-1.4,0-2.7,0.3-3.1,0.5c0-0.2,0.3-2.7,0.3-2.7c1.6-0.3,2.5-0.6,3.8-0.6c2.5,0,3.9,1.3,3.9,3.4c0,0.6,0,1.4-0.2,2.3
		C153.5,216.4,152.8,220,152.8,220.8z M118.1,220.6c-0.8,0.3-1.4,0.3-2.2,0.3c-1.6,0-2.4-0.8-2.4-2.5c0-0.5,0.2-1.9,0.5-3.1
		c0.2-0.9,1.3-7.8,1.3-7.8h3l-0.3,1.7h1.9l-0.5,2.8h-1.7c-0.5,2.2-0.9,5-0.9,5.3c0,0.6,0.3,0.8,1.1,0.8h0.8L118.1,220.6
		 M127.5,220.4c-1.1,0.3-2,0.5-3.1,0.5c-3.4,0-5.2-1.7-5.2-5.2c0-3.9,2.2-6.9,5.3-6.9c2.5,0,4.1,1.7,4.1,4.2c0,0.9-0.2,1.7-0.3,2.8
		h-6.1c-0.2,1.7,0.9,2.5,2.7,2.5c1.1,0,2-0.3,3.1-0.8L127.5,220.4z M125.8,213.7c0-0.3,0.3-2.2-1.4-2.2c-0.9,0-1.7,0.8-2,2.2H125.8z
		 M106.4,212.9c0,1.4,0.8,2.3,2.4,3.1c1.3,0.6,1.4,0.8,1.4,1.3c0,0.8-0.5,1.1-1.7,1.1c-0.9,0-1.7-0.2-2.7-0.5c0,0-0.5,2.5-0.5,2.7
		c0.8,0.2,1.3,0.3,3.1,0.3c3.3,0,4.7-1.1,4.7-3.8c0-1.6-0.6-2.5-2-3.3c-1.3-0.6-1.4-0.8-1.4-1.3c0-0.6,0.5-0.9,1.4-0.9
		c0.6,0,1.4,0,2.2,0.2l0.5-2.7c-0.8-0.2-2-0.3-2.7-0.3C107.6,208.8,106.4,210.7,106.4,212.9 M142.5,209.2c0.8,0,1.6,0.3,2.7,0.8
		l0.5-3c-0.5-0.3-2-1.3-3.3-1.3c-2,0-3.8,0.9-5,2.7c-1.7-0.6-2.5,0.6-3.4,1.7l-0.8,0.3c0.2-0.5,0.2-0.8,0.2-1.3h-2.8
		c-0.5,3.6-1.1,7.2-1.6,10.8l-0.2,0.8h3c0.6-3.3,0.8-5.5,0.9-6.9l1.3-0.6c0.2-0.6,0.6-0.8,1.7-0.8c-0.2,0.8-0.2,1.6-0.2,2.3
		c0,3.8,2,6.1,5.3,6.1c0.8,0,1.6,0,2.7-0.3l0.6-3.3c-1.1,0.5-1.9,0.8-2.7,0.8c-1.7,0-2.8-1.4-2.8-3.4
		C138.6,211.4,140.1,209.2,142.5,209.2"/>
	<path class="st2" d="M95.7,220h-3l1.7-11l-3.9,11h-2l-0.3-11l-1.9,11h-2.8l2.4-14.3h4.4l0.2,8.8l3-8.8h4.7L95.7,220"/>
	<path class="st1" d="M168.3,206.4l-0.8,4.1c-0.8-1.1-1.7-1.9-2.8-1.9c-1.6,0-3,1.3-3.9,3c-1.3-0.3-2.7-0.8-2.7-0.8
		c0.2-0.9,0.2-1.6,0.2-1.7h-2.8c-0.3,3.6-0.9,7.2-1.6,10.8l-0.2,0.8h3.1c0.3-2.7,0.6-4.9,0.9-6.6c1.1-0.9,1.6-1.9,2.7-1.7
		c-0.5,1.1-0.8,2.3-0.8,3.8c0,2.8,1.4,4.7,3.6,4.7c1.3,0,2-0.3,2.8-1.3l-0.2,1.1h3l2.4-14.3C171.2,206.4,168.3,206.4,168.3,206.4z
		 M164.4,218.1c-0.9,0-1.6-0.8-1.6-2.3c0-2.2,0.9-3.8,2.4-3.8c1.1,0,1.7,0.8,1.7,2.2C166.9,216.5,165.8,218.1,164.4,218.1z"/>
	<path class="st2" d="M103.2,214.8c-0.3,0-0.5-0.2-0.6-0.2c-1.7,0-2.7,0.6-2.7,1.9c0,0.6,0.5,1.1,1.1,1.1
		C102.3,217.6,103.2,216.5,103.2,214.8z M105.4,220h-2.5l0.2-1.3c-0.8,0.9-1.9,1.4-3.3,1.4c-1.6,0-2.8-1.3-2.8-3.1
		c0-2.8,2-4.5,5.5-4.5c0.3,0,0.8,0,1.3,0.2v-0.8c0-0.8-0.5-1.1-1.9-1.1c-1.6,0-2.8,0.5-3.3,0.6c0-0.3,0.5-2.7,0.5-2.7
		c1.6-0.5,2.5-0.6,3.6-0.6c2.7,0,4.1,1.3,4.1,3.4c0,0.6-0.2,1.3-0.3,2.2C106,215.4,105.6,219,105.4,220z M146.6,205.9l-0.5,3.1
		c-1.1-0.6-1.9-0.8-2.8-0.8c-2.2,0-3.9,2.2-3.9,5.3c0,2.2,1.1,3.4,3,3.4c0.6,0,1.6-0.2,2.5-0.6l-0.5,3.1c-1.1,0.3-1.9,0.5-2.8,0.5
		c-3.1,0-5.3-2.3-5.3-6.1c0-5.2,2.8-8.8,6.9-8.8C144.5,205.1,146.1,205.8,146.6,205.9 M151.4,214.8c-0.3,0-0.5-0.2-0.6-0.2
		c-1.7,0-2.7,0.6-2.7,1.9c0,0.6,0.5,1.1,1.1,1.1C150.5,217.6,151.4,216.5,151.4,214.8z M153.6,220h-2.5l0.2-1.3
		c-0.8,0.9-1.9,1.4-3.3,1.4c-1.6,0-2.8-1.3-2.8-3.1c0-2.8,2-4.5,5.5-4.5c0.3,0,0.8,0,1.3,0.2v-0.8c0-0.8-0.5-1.1-1.9-1.1
		c-1.6,0-2.8,0.5-3.3,0.6c0-0.3,0.5-2.7,0.5-2.7c1.6-0.5,2.5-0.6,3.6-0.6c2.7,0,4.1,1.3,4.1,3.4c0,0.6-0.2,1.3-0.3,2.2
		C154.2,215.4,153.8,219,153.6,220z M119,219.8c-0.8,0.2-1.6,0.3-2.2,0.3c-1.6,0-2.4-0.9-2.4-2.5c-0.2-0.6,0.2-1.9,0.3-3.1
		c0.2-1.1,1.4-8,1.4-8h3l-0.3,1.9h1.6l-0.5,2.7h-1.5c-0.3,2.3-0.8,5-0.8,5.3c0,0.6,0.3,0.9,0.9,0.9c0.5,0,0.6,0,0.9-0.2L119,219.8
		 M128.3,219.7c-0.9,0.3-2,0.5-3.1,0.5c-3.3,0-5.2-1.7-5.2-5.2c0.2-3.9,2.4-6.9,5.3-6.9c2.5,0,4.2,1.6,4.2,4.2
		c0,0.8-0.2,1.7-0.5,2.8h-6c-0.3,1.7,0.8,2.3,2.5,2.3c1.1,0,2.2-0.2,3.3-0.6L128.3,219.7z M126.6,212.8c0.2-0.2,0.5-2-1.4-2
		c-0.9,0-1.6,0.8-1.9,2H126.6z M107.3,212c0,1.4,0.8,2.5,2.4,3.3c1.3,0.5,1.4,0.8,1.4,1.3c0,0.8-0.5,1.1-1.7,1.1
		c-0.9,0-1.7-0.2-2.8-0.5c0,0-0.3,2.5-0.3,2.7c0.6,0.2,1.3,0.3,3.1,0.3c3.3,0,4.7-1.3,4.7-3.9c0-1.6-0.6-2.5-2.2-3.1
		c-1.3-0.6-1.4-0.8-1.4-1.3c0-0.6,0.5-0.9,1.6-0.9c0.6,0,1.4,0,2.2,0.2l0.3-2.8c-0.8,0-1.9-0.2-2.7-0.2
		C108.6,208,107.3,209.8,107.3,212 M169.9,220h-3l0.2-1.1c-0.8,0.9-1.7,1.3-2.8,1.3c-2.2,0-3.8-1.9-3.8-4.9c0-3.8,2.3-7,5-7
		c1.3,0,2,0.5,3,1.6l0.6-4.1h3L169.9,220z M165.4,217.3c1.4,0,2.4-1.7,2.4-3.9c0-1.6-0.5-2.3-1.6-2.3c-1.4,0-2.4,1.6-2.4,3.9
		C163.8,216.5,164.3,217.3,165.4,217.3z M156.4,208.3c-0.5,3.6-1.1,7.2-1.6,10.8l-0.2,0.8h3c1.1-7.2,1.4-8.5,3.1-8.3
		c0.3-1.6,0.8-2.8,1.1-3.4c-1.3-0.2-1.9,0.5-2.8,1.9c0-0.6,0.2-1.3,0.2-1.7h-2.8 M131.1,208.3c-0.3,3.6-0.9,7.2-1.6,10.8l-0.2,0.8
		h3.1c1.1-7.2,1.4-8.5,3.1-8.3c0.2-1.6,0.8-2.8,1.1-3.4c-1.3-0.2-2,0.5-3,1.9c0.2-0.6,0.3-1.3,0.2-1.7h-2.7 M171.2,219
		c0-0.5,0.5-0.9,0.9-0.9c0.4,0,0.9,0.5,0.9,0.9c0,0.5-0.5,0.9-0.9,0.9C171.7,219.9,171.2,219.5,171.2,219z M172.1,219.7
		c0.3,0,0.6-0.3,0.6-0.6c0-0.3-0.3-0.6-0.6-0.6c-0.5,0-0.8,0.3-0.8,0.6C171.3,219.3,171.6,219.7,172.1,219.7z M171.9,219.3h-0.2
		v-0.7h0.3c0,0,0.2,0,0.2,0.2c0.2,0,0.2,0,0.2,0.2c0,0.2,0,0.2-0.2,0.2l0.2,0.3h-0.2l-0.2-0.3h-0.2v0.1H171.9z M171.9,219h0.2v-0.2
		h0.2c0,0,0-0.2-0.2-0.2h-0.2V219z"/>
</g>
<path class="st0" d="M159.9,307.5c0,1.6-1,2.3-2.8,2.3h-3.5v-1.5h3.5c0.3,0,0.6-0.1,0.7-0.2c0.1-0.1,0.2-0.3,0.2-0.5
	s-0.1-0.4-0.2-0.5c-0.1-0.1-0.3-0.2-0.6-0.2c-1.7-0.1-3.7,0.1-3.7-2.3c0-1.1,0.7-2.2,2.6-2.2h3.6v1.6h-3.3c-0.3,0-0.5,0-0.7,0.1
	c-0.2,0.2-0.3,0.3-0.3,0.6s0.2,0.4,0.4,0.5s0.4,0.1,0.7,0.1h1c1,0,1.7,0.2,2.1,0.6C159.7,306.3,159.9,306.8,159.9,307.5z
	 M152.4,305.8c-0.4-0.4-1.1-0.6-2.1-0.6h-1c-0.3,0-0.5-0.1-0.7-0.1c-0.2-0.1-0.4-0.3-0.4-0.5s0.1-0.4,0.3-0.6
	c0.2-0.1,0.4-0.1,0.7-0.1h3.3v-1.6h-3.6c-1.9,0-2.6,1.2-2.6,2.2c0,2.3,2.1,2.2,3.7,2.3c0.3,0,0.5,0.1,0.6,0.2
	c0.1,0.1,0.2,0.3,0.2,0.5c0,0.2-0.1,0.4-0.2,0.5c-0.2,0.1-0.4,0.2-0.7,0.2h-3.5v1.6h3.5c1.8,0,2.8-0.7,2.8-2.3
	C152.9,306.8,152.7,306.3,152.4,305.8L152.4,305.8z M145.5,308.3h-4.2v-1.5h4.1v-1.5h-4.1v-1.4h4.2v-1.5h-6v7.5h6V308.3L145.5,308.3
	z M137.6,302.7c-0.6-0.3-1.3-0.4-2.2-0.4h-4.1v7.5h1.8v-2.7h1.9c0.6,0,1,0.1,1.3,0.3c0.3,0.4,0.3,1,0.3,1.5v0.9h1.8v-1.4
	c0-0.7-0.1-1-0.3-1.4c-0.2-0.2-0.5-0.5-0.9-0.6c0.5-0.2,1.3-0.8,1.3-2C138.5,303.5,138.2,303,137.6,302.7z M127.5,302.3h-5.7
	l-2.3,2.4l-2.2-2.4H110v7.5h7.1l2.3-2.4l2.2,2.4h3.5v-2.6h2.2c1.5,0,3.1-0.4,3.1-2.5C130.5,302.7,128.9,302.3,127.5,302.3
	L127.5,302.3z M136.2,305.4c-0.3,0.1-0.5,0.1-0.9,0.1l-2.2,0.1v-1.7h2.2c0.3,0,0.6,0,0.9,0.2c0.2,0.1,0.4,0.3,0.4,0.6
	C136.5,305,136.4,305.2,136.2,305.4z M127.5,305.8h-2.3v-1.9h2.3c0.6,0,1.1,0.3,1.1,0.9C128.6,305.4,128.2,305.8,127.5,305.8z
	 M120.7,306.1l2.8-2.9v6L120.7,306.1z M116.4,308.3h-4.4v-1.5h3.9v-1.5h-3.9v-1.4h4.5l2,2.2L116.4,308.3L116.4,308.3z M154.9,296.9
	h-2.6l-3.4-5.6v5.6h-3.6l-0.7-1.7h-3.7l-0.7,1.7H138c-0.9,0-2-0.2-2.6-0.9c-0.6-0.6-0.9-1.5-0.9-2.8c0-1.1,0.2-2.1,1-2.9
	c0.5-0.6,1.5-0.9,2.7-0.9h1.7v1.6h-1.7c-0.6,0-1,0.1-1.4,0.4c-0.3,0.3-0.5,0.9-0.5,1.7c0,0.8,0.2,1.4,0.5,1.8
	c0.3,0.3,0.7,0.4,1.2,0.4h0.8l2.6-5.9h2.7l3,7v-7h2.8l3.1,5.2v-5.2h1.8L154.9,296.9L154.9,296.9L154.9,296.9z M133.7,289.5h-1.8v7.5
	h1.8V289.5L133.7,289.5z M130,289.8c-0.6-0.3-1.2-0.3-2.1-0.3h-4.1v7.5h1.8v-2.8h1.9c0.6,0,1.1,0.1,1.3,0.3c0.3,0.4,0.3,1,0.3,1.4v1
	h1.8v-1.5c0-0.6-0.1-1-0.3-1.3c-0.2-0.2-0.5-0.5-0.9-0.6c0.5-0.2,1.3-0.8,1.3-2C130.9,290.7,130.6,290.2,130,289.8L130,289.8z
	 M122.5,295.4h-4.2v-1.5h4.1v-1.5h-4.1v-1.3h4.2v-1.5h-6v7.5h6V295.4L122.5,295.4z M115.2,289.5h-2.9l-2.2,5.1l-2.3-5.1h-2.9v7l-3-7
	h-2.7l-3.2,7.5h1.9l0.7-1.7h3.7l0.7,1.7h3.6v-5.9l2.6,5.9h1.5l2.6-5.9v5.9h1.8v-7.5H115.2L115.2,289.5z M144,293.7l-1.2-2.9
	l-1.2,2.9H144z M128.6,292.5c-0.3,0.2-0.5,0.2-0.9,0.2h-2.2V291h2.2c0.3,0,0.7,0,0.9,0.1c0.2,0.2,0.3,0.4,0.3,0.7
	S128.8,292.4,128.6,292.5z M99.1,293.7l1.2-2.9l1.2,2.9H99.1z M159.5,266H95.9v26.9l2.2-5h4.6l0.6,1.2v-1.2h5.4l1.2,2.7l1.2-2.7
	h17.4c0.8,0,1.5,0.2,2,0.6v-0.6h4.7v0.6c0.8-0.4,1.8-0.6,3-0.6h6.8l0.6,1.2v-1.2h5.1l0.7,1.2v-1.2h5v10.4h-5l-1-1.6v1.6h-6.2
	l-0.7-1.7H142l-0.7,1.7h-3.2c-1.3,0-2.2-0.3-2.9-0.6v0.6h-7.7v-2.4c0-0.3-0.1-0.4-0.3-0.4h-0.3v2.8h-14.9V297l-0.5,1.3h-3.1
	l-0.5-1.3v1.3h-6l-0.6-1.7h-1.5l-0.7,1.7h-3.1v31.5h63.6v-19.1c-0.7,0.3-1.7,0.5-2.6,0.5h-4.6v-0.6c-0.5,0.4-1.5,0.6-2.4,0.6h-14.6
	v-2.4c0-0.3-0.1-0.3-0.3-0.3h-0.2v2.7h-4.9v-2.8c-0.8,0.4-1.7,0.4-2.5,0.4h-0.5v2.4h-5.9l-1.4-1.6l-1.5,1.6h-9.4v-10.4h9.6l1.4,1.6
	l1.5-1.6h6.4c0.7,0,2,0.1,2.5,0.6v-0.6h5.8c0.6,0,1.7,0.1,2.4,0.6v-0.6h8.7v0.6c0.5-0.4,1.4-0.6,2.2-0.6h4.8v0.6
	c0.5-0.4,1.3-0.6,2.2-0.6h3.3V266L159.5,266z"/>
<g>
	<path class="st0" d="M132,371c6.6,0,11.9,5.2,11.9,11.9v0.2c0,6.6-5.3,11.9-11.9,11.9c-6.6,0-11.9-5.2-11.9-11.9v-0.2
		C120.1,376.2,125.4,371,132,371z"/>
	<path class="st0" d="M113.3,371c1.9,0,3.6,0.5,5.5,1.6v5c-1.9-1.8-3.4-2.5-5.5-2.5c-4,0-7.2,3.4-7.2,7.7c0,4.6,3,7.7,7.4,7.7
		c1.9,0,3.4-0.7,5.3-2.3v5c-2.1,0.9-3.6,1.4-5.5,1.4c-6.6,0-11.9-5.2-11.9-11.9S106.8,371,113.3,371z M92.8,371.2
		c2.5,0,4.7,0.9,6.6,2.5l-2.1,3c-1.3-1.1-2.3-1.8-3.6-1.8c-1.9,0-3.2,1.1-3.2,2.5c0,1.4,0.6,1.8,3.4,3c4.9,1.8,6.4,3.4,6.4,7.1
		c0,4.3-3.2,7.3-7.6,7.3c-3.4,0-5.7-1.4-7.8-4.3l2.8-2.7c1.1,2.1,2.8,3.2,4.9,3.2c1.9,0,3.4-1.4,3.4-3.2c0-1.1-0.4-1.8-1.3-2.5
		c-0.4-0.2-1.5-0.7-3.2-1.1c-4-1.6-5.5-3.2-5.5-6.4C85.8,373.9,89,371.2,92.8,371.2z M142.6,371.7h4.7l6.1,15l5.9-15h4.7l-9.5,23
		h-2.3 M78.8,371.7H83v22.6h-4.2 M166.1,371.7h12.3v3.9h-8v5h7.6v3.9h-7.6v5.9h8v3.9h-12.3 M190.5,384.7c3.4-0.7,5.1-3,5.1-6.4
		c0-4.1-2.8-6.6-7.8-6.6h-6.6v22.6h4.4v-9.1h0.6l5.9,9.1h5.3L190.5,384.7z M186.9,382.1h-1.3v-6.8h1.3c2.8,0,4.2,1.1,4.2,3.2
		C191.1,380.8,189.6,382.1,186.9,382.1z M64.8,371.7h-6.4v22.6h6.4c3.4,0,5.7-0.7,7.8-2.5c2.5-2.3,4-5.5,4-8.7
		C76.7,376.2,71.8,371.7,64.8,371.7z M69.9,388.5c-1.5,1.4-3.2,1.8-5.9,1.8h-1.3v-14.8H64c2.8,0,4.4,0.5,5.9,1.8
		c1.5,1.4,2.3,3.4,2.3,5.5C72.3,385.1,71.4,387.2,69.9,388.5z"/>
</g>
<g>
	<path class="st0" d="M174.9,468.2c0,15.5-12.5,28-28,28c-15.7,0-28.2-12.5-28.2-28c0-15.7,12.5-28.2,28.2-28.2
		C162.3,440,174.9,452.6,174.9,468.2"/>
	<path class="st0" d="M125,485.9c-0.8-0.9-1.6-1.9-2.2-3h10c0.6-0.9,1.1-1.9,1.6-3h-13.2c-0.5-0.9-0.9-1.9-1.3-3h15.8
		c0.9-2.7,1.4-5.8,1.4-8.8c0-2.2-0.2-4.1-0.6-6.1h-17.2c0.2-0.9,0.5-1.9,0.8-3h15.6c-0.3-0.9-0.8-1.9-1.3-3h-13.2
		c0.5-0.9,0.9-1.9,1.6-3h10c-0.6-0.9-1.4-2-2.2-3H125c0.8-0.9,1.9-2,2.8-3c-5-4.4-11.6-7.2-19-7.2c-15.5,0-28,12.5-28,28.2
		c0,15.5,12.5,28,28,28c7.4,0,13.9-2.8,19-7.2c1.1-0.9,2-2,2.8-3.1H125"/>
	<path class="st1" d="M171.1,483.9c0-0.6,0.5-0.9,0.9-0.9c0.5,0,0.9,0.3,0.9,0.9c0,0.5-0.5,0.8-0.9,0.8S171.1,484.4,171.1,483.9z
		 M172,484.5c0.3,0,0.6-0.3,0.6-0.6c0-0.5-0.3-0.8-0.6-0.8c-0.5,0-0.8,0.3-0.8,0.8C171.3,484.2,171.6,484.5,172,484.5z M171.9,484.2
		h-0.2v-0.8h0.5c0.2,0.2,0.2,0.2,0.2,0.3c0,0,0,0.2-0.2,0.2l0.2,0.3h-0.2l-0.2-0.3h-0.2L171.9,484.2L171.9,484.2z M171.9,483.7h0.3
		c0-0.2,0-0.2-0.2-0.2h-0.2L171.9,483.7L171.9,483.7z M127.4,475.7c-1.1,0.3-2.4,0.5-3.4,0.5c-3.9,0-6.1-1.7-6.1-5.2
		c0-4.1,2.7-6.9,6.3-6.9c2.8,0,4.7,1.6,4.7,4.2c0,0.8-0.2,1.6-0.5,2.8h-6.9c-0.3,1.7,0.9,2.4,3,2.4c1.3,0,2.3-0.2,3.6-0.6
		L127.4,475.7z M125.5,468.9c0-0.3,0.5-2-1.6-2c-1.1,0-1.9,0.6-2.2,2H125.5z M129.9,468.1c0,1.4,0.8,2.5,2.7,3.3
		c1.4,0.5,1.6,0.6,1.6,1.3c0,0.7-0.6,1.1-2,1.1c-0.9,0-2-0.2-3.1-0.5l-0.5,2.7c0.9,0.2,2.5,0.3,3.8,0.3c3.8,0,5.5-1.3,5.5-3.9
		c0-1.6-0.8-2.5-2.5-3.3c-1.6-0.5-1.7-0.6-1.7-1.3s0.6-0.9,1.7-0.9c0.8,0,1.7,0.2,2.7,0.2l0.5-2.7c-0.9-0.2-2.4-0.2-3.1-0.2
		C131.2,464.2,129.7,465.9,129.9,468.1 M116.1,476.1h-2.8v-1.3c-0.9,0.9-2,1.4-3.8,1.4c-1.9,0-3.1-1.3-3.1-3.1
		c0-2.8,2.2-4.5,6.1-4.5c0.5,0,0.9,0,1.6,0.2V468c0-0.8-0.5-1.1-2.2-1.1c-1.6,0-2.7,0.3-3.8,0.5l0.5-2.5c1.9-0.5,3-0.6,4.2-0.6
		c3.1,0,4.7,1.1,4.7,3.3c0,0.6-0.2,1.9-0.3,2.3C117,470.6,116.2,475,116.1,476.1z M113.5,470.9c-0.3-0.2-0.6-0.2-0.8-0.2
		c-2,0-3,0.6-3,1.9c0,0.6,0.5,1.1,1.3,1.1C112.5,473.7,113.5,472.6,113.5,470.9z M143.8,475.9c-0.9,0.2-1.7,0.3-2.5,0.3
		c-1.7,0-2.8-0.9-2.8-2.5c0-0.5,0.5-2.5,0.5-3.1c0.2-0.6,1.7-8.9,1.7-8.9h3.4l-0.4,2.6h1.7l-0.5,3h-1.7c0,0-1.1,4.9-1.1,5.2
		c0,0.6,0.5,0.9,1.3,0.9c0.3,0,0.6,0,0.9-0.2L143.8,475.9 M159.4,464.2c-2.5,0-4.5,0.9-5.6,2.8l0.9-2.7c-1.9-0.6-3,0.3-4.1,1.7
		l-0.3,0.3v-2H147c-0.5,3.6-1.3,7.4-1.9,11l-0.2,0.8h3.6c0.3-1.9,0.5-3.3,0.8-4.5c0.8-3.3,2-4.2,3.9-3.8c-0.5,0.9-0.6,2-0.6,3.1
		c0,3,1.6,5.3,5.5,5.3c3.9,0,6.7-2,6.7-6.9C164.8,466.3,163,464.2,159.4,464.2z M158.4,473.4c-1.3,0-2-1.1-2-2.7
		c0-1.7,1.1-3.9,2.8-3.9c1.4,0,1.9,1.3,1.9,2.3C161.1,471.8,160.1,473.4,158.4,473.4z M104.8,476.1h-3.6l2-11l-4.7,11h-3.1l-0.6-11
		l-2.2,11h-3.1l2.7-14.3h5.5l0.5,8l3.4-8h6L104.8,476.1"/>
	<path class="st2" d="M165.1,474.2c0-0.5,0.5-0.8,0.9-0.8c0.5,0,0.9,0.3,0.9,0.8c0,0.6-0.5,0.9-0.9,0.9S165.1,474.8,165.1,474.2z
		 M166.1,475c0.3,0,0.6-0.3,0.6-0.8c0-0.3-0.3-0.6-0.6-0.6s-0.6,0.3-0.6,0.6C165.5,474.5,165.8,475,166.1,475z M165.9,474.7h-0.2
		v-0.8h0.5c0.2,0,0.2,0.2,0.2,0.2c0,0.2,0,0.2-0.2,0.3l0.2,0.3h-0.2l-0.2-0.3h-0.2L165.9,474.7L165.9,474.7z M165.9,474.2h0.3V474
		h-0.3V474.2z M128.3,474.8c-1.3,0.3-2.4,0.5-3.6,0.5c-3.9,0-6-1.7-6-5.2c0-3.9,2.7-6.9,6.1-6.9c3,0,4.7,1.7,4.7,4.2
		c0,0.8,0,1.7-0.3,2.8h-7.1c-0.2,1.7,0.9,2.5,3.1,2.5c1.1,0,2.3-0.3,3.6-0.8L128.3,474.8z M126.5,467.9c0-0.2,0.5-2-1.6-2
		c-1.1,0-2,0.8-2.4,2H126.5z M130.7,467.1c0,1.6,0.8,2.5,2.7,3.3c1.6,0.6,1.7,0.8,1.7,1.3c0,0.8-0.6,1.1-2,1.1c-1.1,0-2-0.2-3.1-0.5
		l-0.5,2.7c0.9,0.3,2.3,0.3,3.6,0.3c3.8,0,5.5-1.1,5.5-3.8c0-1.7-0.6-2.7-2.5-3.3c-1.4-0.6-1.6-0.8-1.6-1.3c0-0.6,0.5-0.9,1.7-0.9
		c0.6,0,1.6,0,2.5,0.2l0.5-2.7c-0.9-0.2-2.4-0.3-3.1-0.3C132.1,463.2,130.7,464.9,130.7,467.1 M117,475.1h-3l0.2-1.3
		c-0.9,1.1-2.2,1.4-3.8,1.4c-1.9,0-3.1-1.3-3.1-3.1c0-2.8,2.2-4.5,6.1-4.5c0.5,0,0.9,0.2,1.4,0.2c0.2-0.3,0.2-0.5,0.2-0.8
		c0-0.8-0.6-1.1-2.2-1.1c-1.7,0-2.8,0.3-3.8,0.6l0.5-2.7c1.7-0.5,3-0.6,4.2-0.6c3,0,4.5,1.3,4.5,3.4c0.2,0.6-0.2,1.7-0.2,2.3
		C117.9,469.6,117,474.2,117,475.1z M114.3,470h-0.8c-1.9,0-3,0.5-3,1.7c0,0.8,0.5,1.3,1.3,1.3c1.6,0,2.5-1.3,2.7-3H114.3z
		 M144.8,475c-1.1,0.3-1.7,0.3-2.5,0.3c-1.9,0-2.8-0.8-2.8-2.5c0-0.5,0.3-2.5,0.5-3.1c0.2-0.5,1.6-8.9,1.6-8.9h3.6l-0.6,2.8h1.9
		l-0.5,2.8h-1.9c0,0-0.9,4.9-0.9,5.3c0,0.6,0.3,0.8,1.3,0.8h0.9L144.8,475 M162,468.4c0,2.5-1.1,4.1-2.8,4.1c-1.3,0-1.9-0.9-1.9-2.5
		c0-1.9,1.1-3.9,2.8-3.9C161.5,466,162,467.1,162,468.4z M165.8,468.4c0-2.8-1.9-5.2-5.5-5.2c-4.2,0-6.9,2.8-6.9,6.9
		c0,2.8,1.6,5.2,5.5,5.2C163,475.3,165.8,473.2,165.8,468.4z M147.8,463.5c-0.3,3.6-1.1,7.2-1.7,10.8l-0.2,0.8h3.4
		c1.3-6.9,1.7-8.9,4.4-8.3l1.3-3.3c-1.9-0.6-3,0.3-4.1,1.7c0-0.6,0.3-1.3,0.2-1.7H147.8 M105.6,475.1h-3.4l2-11l-4.7,11h-3.3
		l-0.7-10.8l-2,10.8h-3.1l2.7-14.3h5.5l0.3,8.9l3.8-8.9h5.8L105.6,475.1"/>
</g>
<g>
	<g>
		<path class="st0" d="M170.5,564.8c-0.4,0.2-0.9,0.5-1.3,0.7c-1.3,0.6-2.6,0.8-3.8,0.8c-1.3,0-3.2-0.1-5.2-1.5c-2.8-2-4-5.3-4-8.3
			c0-6.1,4.9-9.1,9-9.1c1.4,0,2.9,0.4,4,1.1c2,1.3,2.5,3,2.8,3.9l-9.3,3.7l-3,0.2c1,5,4.3,7.9,8.1,7.9c2,0,3.5-0.7,4.8-1.4
			L170.5,564.8 M166.9,553.1c0.7-0.3,1.2-0.5,1.2-1.1c0-1.6-1.8-3.4-3.9-3.4c-1.6,0-4.5,1.2-4.5,5.5c0,0.7,0.1,1.4,0.1,2.1
			L166.9,553.1"/>
		<path class="st0" d="M155.4,565.7h-6.9c0.9-1.2,1.1-1.3,1.1-2.1v-6.4c0-3.1,0-7.4,0.2-11.5c0-2,0.2-4.5,0.2-6.3h-3.1l3-1.4h5.6
			c-1.2,0.7-1.6,1-1.8,2.3c-0.3,3-0.4,7.8-0.4,13.4v9.1c0,1.5,0.3,1.8,1.6,1.9c0.7,0.1,1.4,0.1,2,0.2L155.4,565.7"/>
		<path class="st0" d="M142.5,549.4c0.9,0.8,2.8,2.3,2.8,5.3c0,2.9-1.6,4.3-3.3,5.6c-0.5,0.5-1.1,1.1-1.1,1.9s0.6,1.3,1,1.7l1.4,1.1
			c1.7,1.5,3.3,2.8,3.3,5.5c0,3.7-3.6,7.4-10.3,7.4c-5.7,0-8.5-2.7-8.5-5.6c0-1.4,0.7-3.4,3-4.8c2.4-1.5,5.7-1.7,7.5-1.8
			c-0.6-0.7-1.2-1.4-1.2-2.7c0-0.7,0.2-1.1,0.4-1.6c-0.4,0-0.9,0.1-1.2,0.1c-4.2,0-6.5-3.1-6.5-6.2c0-1.8,0.8-3.8,2.5-5.3
			c2.2-1.8,4.9-2.2,7-2.2h8.1l-2.5,1.4L142.5,549.4 M139.7,566.7c-0.3,0-0.5,0-0.9,0s-2.5,0.1-4.1,0.6c-0.9,0.3-3.4,1.2-3.4,4
			s2.7,4.8,6.9,4.8c3.8,0,5.8-1.8,5.8-4.2C143.9,569.9,142.7,568.8,139.7,566.7 M140.8,559.3c0.9-0.9,1-2.2,1-2.9
			c0-2.8-1.7-7.2-4.9-7.2c-1,0-2.1,0.5-2.8,1.3c-0.7,0.8-0.9,1.9-0.9,2.9c0,2.6,1.5,7,4.9,7C139.1,560.4,140.2,559.9,140.8,559.3
			 M118.1,566.2c-6.3,0-9.6-4.9-9.6-9.3c0-5.1,4.2-9.6,10.2-9.6c5.8,0,9.4,4.5,9.4,9.3C128.1,561.2,124.6,566.2,118.1,566.2
			 M123,563c0.9-1.2,1.2-2.8,1.2-4.3c0-3.5-1.6-10.1-6.5-10.1c-1.3,0-2.6,0.5-3.6,1.3c-1.5,1.4-1.8,3.1-1.8,4.8
			c0,3.9,1.9,10.3,6.7,10.3C120.6,565,122.2,564.2,123,563 M97.3,566.2c-6.3,0-9.6-4.9-9.6-9.3c0-5.1,4.2-9.6,10.2-9.6
			c5.8,0,9.4,4.5,9.4,9.3C107.3,561.2,103.8,566.2,97.3,566.2 M102.2,563c1-1.2,1.2-2.8,1.2-4.3c0-3.5-1.6-10.1-6.5-10.1
			c-1.3,0-2.6,0.5-3.6,1.3c-1.6,1.4-1.8,3.1-1.8,4.8c0,3.9,1.9,10.3,6.7,10.3C99.8,565,101.4,564.2,102.2,563 M85.2,564.8l-5.3,1.2
			c-2.2,0.3-4.1,0.6-6.1,0.6c-10.2,0-14-7.5-14-13.3c0-7.1,5.5-13.8,14.9-13.8c2,0,3.9,0.3,5.6,0.8c2.8,0.8,4.1,1.7,4.9,2.3
			l-3.1,2.9l-1.3,0.3l0.9-1.5c-1.2-1.2-3.6-3.5-7.9-3.5c-5.8,0-10.2,4.4-10.2,10.9c0,6.9,5,13.4,13,13.4c2.4,0,3.6-0.5,4.7-0.9v-5.9
			l-5.5,0.3l3-1.6h7.8l-1,0.9c-0.2,0.2-0.3,0.3-0.4,0.6c0,0.3-0.1,1.4-0.1,1.8L85.2,564.8 M187.4,565.7h-2.8l-4.1-17.8h2.2l3.4,16
			l3.5-16h2.8l3.5,16l3.3-16h2.2l-4,17.8h-2.8l-3.5-15.9L187.4,565.7 M214.4,553.3c0-2.9-1.3-4-4.2-4c-2.3,0-3.6,1.2-3.9,3.3l-2-0.3
			c0.4-2.9,2.7-4.9,6-4.9c3.9,0,6.1,1.7,6.1,5.6v9.1c0,1.6,0.1,2.6,0.3,3.5h-2.1c-0.2-0.5-0.2-1.4-0.2-1.9c-0.8,1.2-2.8,2.3-4.7,2.3
			c-3.3,0-5.9-2-5.9-5.9c0-3.6,2.6-5.7,6.3-5.7c1.8,0,3.3,0.3,4.2,0.8L214.4,553.3 M214.4,557.1c-1-0.5-2.4-0.9-4.3-0.9
			c-2.5,0-4.3,1.2-4.3,3.9c0,2.8,1.6,4.1,3.9,4.1c2,0,3.9-1.5,4.6-3L214.4,557.1 M220.4,540.4h2v25.4h-2V540.4z M226.6,540.4h2v25.4
			h-2V540.4z M238.7,564.2c2.2,0,3.8-1.3,4.1-4.6l2.1,0.3c-0.5,4.3-3,6.3-6.2,6.3c-4.2,0-6.7-3.1-6.7-9.5c0-5.7,2.1-9.1,6.5-9.1
			c4.6,0,6.4,3.8,6.4,9v0.7H234C234.1,562,235.9,564.2,238.7,564.2 M242.8,555.3L242.8,555.3c-0.1-3.4-1.4-6-4.3-6
			c-2.8,0-4.3,2.3-4.4,5.9L242.8,555.3 M254.3,565.6c-0.4,0.2-1.2,0.3-2.1,0.3c-2.6,0-3.5-1.3-3.5-3.9v-12.3h-2.3V548h2.3v-5.7
			l2.1-0.8v6.5h3.6v1.8h-3.6v12c0,1.7,0.3,2.2,1.8,2.2c0.7,0,1.3-0.2,1.8-0.4L254.3,565.6"/>
	</g>
	<path class="st0" d="M19.6,549.7c-2.8-3.9-6.8-7.3-11.3-9.7c-2.3-1.2-5.1-0.4-6.4,1.9l0,0c-1.2,2.3-0.4,5.1,1.9,6.4
		c6.9,3.7,11.4,10.8,11.9,18.9l0,0c-0.1-0.9,0.1-1.8,0.5-2.6c0.1-0.1,0.1-0.2,0.2-0.4c2.2-3.6,3.3-7.7,3.3-11.8
		C19.7,551.4,19.7,550.5,19.6,549.7"/>
	<path class="st0" d="M46.9,540.8c-0.8-3.7-2.1-7.2-3.7-10.6c-0.9-1.8-2.7-3-4.7-3c-0.8,0-1.5,0.2-2.2,0.5c-2.6,1.2-3.7,4.4-2.5,6.9
		c2.6,5.6,4,11.5,4,17.6s-1.3,12-3.9,17.5c0,0.1-0.5,1.1-0.5,2.2c0,0.4,0,0.8,0.1,1.2c0.3,1.6,1.4,2.9,2.9,3.5
		c0.7,0.3,1.4,0.5,2.2,0.5c1.9,0,3.7-1,4.6-2.7c1-1.9,2.1-4.5,3-7.8c0.3-1,0.5-1.9,0.8-2.9c0.9-3.8,1.3-7.6,1.3-11.5
		C48.2,548.4,47.8,544.6,46.9,540.8"/>
	<path class="st0" d="M24.9,535.4c-0.1-0.2-0.2-0.3-0.3-0.4c-0.9-1.2-2.4-1.9-3.9-1.9c-0.8,0-1.2,0.1-1.8,0.3s-1.2,0.6-1.8,1.1
		c-0.5,0.5-0.9,1.1-1.1,1.8c-0.5,1.3-0.4,2.9,0.4,4.2c1.7,2.8,2.7,5.9,3.1,9.2c0.1,0.9,0.2,1.7,0.2,2.6c0,4.2-1.1,8.3-3.3,11.8
		c-0.6,0.9-0.8,2-0.7,3c0.2,1.6,1,3,2.4,3.8c0.4,0.2,0.7,0.4,1.1,0.5c2.2,0.7,4.5-0.2,5.7-2.2c3.1-5.1,4.7-11,4.7-17
		C29.6,546.3,28,540.5,24.9,535.4"/>
	<path class="st0" d="M33.9,569.7c2.6-5.5,3.9-11.4,3.9-17.5c0-2.1-0.2-3.6-0.3-4.6c-3.4-5.4-8.4-10.3-14.2-13.9
		c0,0,0.1,0.1,0.2,0.1c0.4,0.3,0.7,0.6,1.1,1.1c0.1,0.1,0.2,0.3,0.3,0.4c3.1,5.1,4.7,11,4.7,16.9c0,0.7,0,1.4-0.1,2.1
		c2.5,4.7,3.8,10,3.8,15.7c0,0.5,0,1.2,0,1.7c0-0.6,0.2-1.2,0.4-1.8C33.8,569.8,33.8,569.8,33.9,569.7"/>
</g>
</svg>
