<?xml version="1.0" encoding="utf-8"?>
<!-- Generator: Adobe Illustrator 23.1.0, SVG Export Plug-In . SVG Version: 6.00 Build 0)  -->
<svg version="1.1" id="Layer_1" xmlns="http://www.w3.org/2000/svg" xmlns:xlink="http://www.w3.org/1999/xlink" x="0px" y="0px"
	 viewBox="0 0 75.5 108.5" style="enable-background:new 0 0 75.5 108.5;" xml:space="preserve">
<style type="text/css">
	.st0{clip-path:url(#SVGID_2_);}
	.st1{fill:#F7931E;}
	.st2{fill:#231F20;}
</style>
<title>logo TECOTEC ECOM</title>
<g>
	<defs>
		<rect id="SVGID_1_" y="0" width="75.5" height="108.5"/>
	</defs>
	<clipPath id="SVGID_2_">
		<use xlink:href="#SVGID_1_"  style="overflow:visible;"/>
	</clipPath>
	<g class="st0">
		<path class="st1" d="M32.1,2.1c0,1.1-0.9,2-2,2c-1.1,0-2-0.9-2-2c0,0,0,0,0,0c0-1.1,0.9-2,2-2C31.2,0.1,32.1,1,32.1,2.1
			C32.1,2.1,32.1,2.1,32.1,2.1"/>
		<path class="st1" d="M13.8,16.1c0,1.1-0.9,1.9-1.9,1.9c0,0,0,0,0,0c-1.1,0-1.9-0.9-1.9-1.9c0-1.1,0.9-1.9,1.9-1.9
			C12.9,14.1,13.8,15,13.8,16.1L13.8,16.1"/>
		<path class="st1" d="M19,13.3c0,1.1-0.9,1.9-1.9,1.9c-1.1,0-1.9-0.9-1.9-1.9s0.9-1.9,1.9-1.9c0,0,0.1,0,0.1,0
			C18.2,11.4,19,12.3,19,13.3"/>
		<path class="st1" d="M24.2,10.5c0,1-0.7,1.9-1.7,1.9c0,0-0.1,0-0.1,0c-1.1,0-1.9-0.9-1.9-1.9c0,0,0,0,0,0c0-1.1,0.9-1.9,1.9-1.9
			l0,0C23.4,8.6,24.2,9.4,24.2,10.5C24.2,10.4,24.2,10.5,24.2,10.5"/>
		<path class="st1" d="M29.9,8c0,1-0.8,1.7-1.7,1.7c-0.9,0-1.7-0.6-1.7-1.6c0-0.1,0-0.1,0-0.2c0-1,0.7-1.8,1.6-1.8c0,0,0.1,0,0.1,0
			C29.2,6.2,29.9,6.9,29.9,8C29.9,7.9,29.9,8,29.9,8"/>
		<path class="st1" d="M28.2,12.9c0,0.8-0.6,1.5-1.4,1.6c0,0-0.1,0-0.1,0c-0.8,0-1.5-0.7-1.5-1.6c0-0.8,0.7-1.4,1.5-1.5
			C27.5,11.5,28.2,12.1,28.2,12.9C28.2,12.9,28.2,12.9,28.2,12.9"/>
		<path class="st1" d="M26.8,17.8c0,0.6-0.5,1.2-1.1,1.2c-0.7,0-1.2-0.5-1.2-1.2c-0.2-0.6,0.2-1.3,0.8-1.5c0.6-0.2,1.3,0.2,1.5,0.8
			C26.9,17.4,26.9,17.6,26.8,17.8"/>
		<path class="st1" d="M26.1,21.5c0,0.5-0.4,1-1,1c-0.5,0-1-0.4-1-1c0-0.5,0.4-1,1-1C25.7,20.6,26.1,21,26.1,21.5"/>
		<path class="st1" d="M25.5,25c0,0.4-0.3,0.7-0.7,0.7c-0.3,0-0.6-0.3-0.6-0.7c0-0.3,0.2-0.6,0.5-0.7c0,0,0.1,0,0.1,0
			c0.3-0.1,0.6,0.2,0.7,0.5C25.5,24.9,25.5,24.9,25.5,25"/>
		<path class="st1" d="M13.8,21.4c0,1-0.8,1.7-1.7,1.7s-1.7-0.8-1.7-1.7s0.8-1.7,1.7-1.7S13.8,20.5,13.8,21.4"/>
		<path class="st1" d="M18.4,18.2c0,1-0.8,1.7-1.7,1.7c-1,0-1.7-0.8-1.7-1.7s0.8-1.7,1.7-1.7C17.6,16.5,18.4,17.3,18.4,18.2"/>
		<path class="st1" d="M18.2,22.6c0,0.9-0.8,1.6-1.6,1.6c-0.9,0-1.6-0.7-1.6-1.7c0-0.9,0.7-1.6,1.6-1.6C17.5,21,18.2,21.7,18.2,22.6
			"/>
		<path class="st1" d="M22.7,19.7c0,0.9-0.6,1.6-1.5,1.6c0,0-0.1,0-0.1,0c-0.9,0.2-1.8-0.3-2-1.2c-0.2-0.9,0.3-1.8,1.2-2
			c0.2-0.1,0.5-0.1,0.8,0C22,18.1,22.7,18.8,22.7,19.7"/>
		<path class="st1" d="M18.6,26.4c0,0.8-0.6,1.5-1.4,1.6c0,0-0.1,0-0.1,0c-0.8,0-1.5-0.7-1.5-1.6c0-0.8,0.7-1.4,1.5-1.5
			C17.9,24.9,18.6,25.6,18.6,26.4L18.6,26.4"/>
		<path class="st1" d="M22.4,23.7c0,0.8-0.7,1.5-1.5,1.5c-0.8,0-1.5-0.7-1.5-1.5c0,0,0,0,0,0c0-0.8,0.7-1.5,1.5-1.5
			C21.7,22.2,22.4,22.9,22.4,23.7"/>
		<path class="st1" d="M19.4,30c0,0.8-0.6,1.4-1.4,1.4s-1.4-0.6-1.4-1.4c0-0.8,0.6-1.4,1.4-1.4S19.4,29.3,19.4,30"/>
		<path class="st1" d="M22.5,27.3c0,0.7-0.6,1.3-1.3,1.3h0c-0.7,0-1.3-0.6-1.4-1.3c0-0.8,0.6-1.4,1.4-1.4l0,0
			C21.9,25.9,22.5,26.5,22.5,27.3"/>
		<path class="st1" d="M21.1,33.1c0,0.7-0.5,1.2-1.2,1.2s-1.2-0.5-1.2-1.2c0-0.7,0.5-1.2,1.2-1.2S21.1,32.4,21.1,33.1L21.1,33.1"/>
		<path class="st1" d="M23.3,30.1c0,0.7-0.5,1.2-1.2,1.2c0,0,0,0,0,0c-0.7,0-1.2-0.5-1.2-1.2c0-0.7,0.5-1.2,1.2-1.2
			C22.7,28.9,23.3,29.4,23.3,30.1L23.3,30.1"/>
		<path class="st1" d="M23,35.3c0,0.6-0.5,1-1,1c-0.6,0-1-0.5-1-1c0,0,0,0,0,0c0-0.6,0.5-1,1-1C22.5,34.3,23,34.8,23,35.3
			C23,35.3,23,35.3,23,35.3"/>
		<path class="st1" d="M24.5,32.6c0,0.6-0.5,1-1,1c-0.6,0-1.1-0.5-1.1-1c0-0.6,0.5-1.1,1.1-1.1C24,31.6,24.5,32,24.5,32.6"/>
		<path class="st1" d="M24.7,37.4c0,0.5-0.4,1-1,1s-1-0.4-1-1c0-0.5,0.4-1,1-1c0,0,0,0,0,0C24.3,36.5,24.7,36.9,24.7,37.4"/>
		<path class="st1" d="M25.8,34.8c0,0.5-0.4,1-1,1c-0.5,0-1-0.4-1-1c0-0.5,0.4-1,1-1c0,0,0,0,0,0C25.4,33.9,25.8,34.3,25.8,34.8"/>
		<path class="st1" d="M26.3,39.1c0,0.4-0.4,0.8-0.8,0.8c-0.4,0-0.8-0.3-0.8-0.8c0-0.4,0.3-0.8,0.8-0.8
			C25.9,38.3,26.3,38.6,26.3,39.1C26.3,39.1,26.3,39.1,26.3,39.1"/>
		<path class="st1" d="M27,36.6c0,0.4-0.4,0.8-0.8,0.8c-0.4,0-0.8-0.3-0.8-0.8c0-0.4,0.3-0.8,0.8-0.8C26.6,35.8,27,36.2,27,36.6
			C27,36.6,27,36.6,27,36.6"/>
		<path class="st1" d="M27.8,40.4c0,0.4-0.3,0.7-0.6,0.7c-0.4,0-0.7-0.3-0.7-0.7c0-0.4,0.3-0.7,0.7-0.7
			C27.5,39.8,27.8,40.1,27.8,40.4"/>
		<path class="st1" d="M28.2,38.1c0,0.4-0.3,0.7-0.7,0.7c-0.4,0-0.7-0.3-0.7-0.7c0-0.4,0.3-0.7,0.7-0.7h0
			C27.9,37.4,28.2,37.7,28.2,38.1"/>
		<path class="st1" d="M29.1,41.6c0,0.3-0.2,0.6-0.5,0.6c-0.3,0-0.5-0.3-0.5-0.6c0-0.3,0.2-0.5,0.5-0.5S29.1,41.3,29.1,41.6"/>
		<path class="st1" d="M29.4,39.3c0,0.3-0.3,0.5-0.6,0.5c-0.3,0-0.5-0.2-0.5-0.5c0-0.3,0.2-0.6,0.5-0.6C29.2,38.7,29.4,39,29.4,39.3
			L29.4,39.3"/>
		<path class="st1" d="M23.3,15.4c0,1-0.8,1.7-1.7,1.7s-1.7-0.8-1.7-1.7s0.8-1.7,1.7-1.7S23.3,14.4,23.3,15.4"/>
		<path class="st1" d="M14,26.2c0.2,0.9-0.3,1.8-1.2,2c-0.9,0.2-1.8-0.3-2-1.2c-0.1-0.2-0.1-0.5,0-0.8c0-0.9,0.6-1.6,1.5-1.6
			c0,0,0.1,0,0.1,0c0.9,0,1.6,0.6,1.6,1.5C14,26.1,14,26.2,14,26.2"/>
		<path class="st1" d="M14.5,30.4c0,0.8-0.6,1.5-1.4,1.6c0,0-0.1,0-0.1,0c-0.8,0-1.5-0.7-1.5-1.6c0-0.8,0.7-1.4,1.5-1.5
			C13.8,28.9,14.5,29.6,14.5,30.4L14.5,30.4"/>
		<path class="st1" d="M15.5,34.3c0,0.7-0.6,1.3-1.3,1.3c-0.7,0-1.3-0.6-1.3-1.3c0-0.7,0.6-1.3,1.3-1.4C15,32.9,15.5,33.5,15.5,34.3
			C15.5,34.2,15.5,34.3,15.5,34.3"/>
		<path class="st1" d="M17.4,37.4c0,0.7-0.5,1.2-1.2,1.2c-0.7,0-1.2-0.5-1.2-1.2c0-0.7,0.5-1.2,1.2-1.2
			C16.9,36.2,17.4,36.7,17.4,37.4L17.4,37.4"/>
		<path class="st1" d="M19.6,40c0,0.6-0.5,1-1,1h0c-0.6,0-1.1-0.4-1.1-1c0,0,0-0.1,0-0.1c0-0.6,0.5-1.1,1.1-1.1
			C19.2,38.9,19.6,39.4,19.6,40"/>
		<path class="st1" d="M20.3,36.4c0,0.6-0.5,1.1-1.1,1.1c-0.6,0-1-0.5-1-1.1c0-0.6,0.5-1,1-1h0C19.8,35.3,20.3,35.7,20.3,36.4
			C20.3,36.3,20.3,36.3,20.3,36.4"/>
		<path class="st1" d="M22,41.9c0,0.5-0.4,1-1,1c-0.5,0-1-0.4-1-1c0-0.5,0.4-1,1-1c0,0,0,0,0,0C21.5,41,22,41.4,22,41.9"/>
		<path class="st1" d="M22.3,38.7c0,0.5-0.4,1-1,1c-0.5,0-1-0.4-1-1s0.4-1,1-1c0,0,0,0,0,0C21.9,37.8,22.3,38.2,22.3,38.7"/>
		<path class="st1" d="M24,43.4c0,0.4-0.3,0.8-0.8,0.8c-0.4,0-0.8-0.3-0.8-0.8c0,0,0,0,0,0c0-0.4,0.3-0.8,0.8-0.8
			C23.7,42.6,24,43,24,43.4C24,43.4,24,43.4,24,43.4"/>
		<path class="st1" d="M24.1,40.5c0,0.4-0.4,0.8-0.8,0.8c-0.4,0-0.8-0.3-0.8-0.8c0-0.4,0.3-0.8,0.8-0.8
			C23.8,39.8,24.1,40.1,24.1,40.5C24.1,40.5,24.1,40.5,24.1,40.5"/>
		<path class="st1" d="M26,44.8c0,0.4-0.3,0.7-0.6,0.7c-0.4,0-0.7-0.3-0.7-0.7c0-0.4,0.3-0.7,0.7-0.7C25.7,44.1,26,44.4,26,44.8"/>
		<path class="st1" d="M25.9,42c0,0.4-0.3,0.7-0.7,0.7c-0.4,0-0.7-0.3-0.7-0.7c0-0.4,0.3-0.7,0.7-0.7C25.6,41.3,25.9,41.6,25.9,42"
			/>
		<path class="st1" d="M27.6,45.9c0,0.3-0.2,0.5-0.5,0.5s-0.5-0.2-0.5-0.5c0-0.3,0.2-0.6,0.5-0.6C27.4,45.3,27.6,45.6,27.6,45.9"/>
		<path class="st1" d="M27.6,43.1c0,0.3-0.3,0.6-0.6,0.6h0c-0.3,0-0.5-0.3-0.5-0.6c0-0.3,0.2-0.5,0.5-0.5
			C27.3,42.6,27.6,42.8,27.6,43.1"/>
		<path class="st1" d="M26,4.7c0.2,1.1-0.5,2.2-1.6,2.5c-1.1,0.2-2.2-0.5-2.5-1.6c-0.1-0.3-0.1-0.6,0-0.8c0.2-1.1,1.3-1.9,2.5-1.6
			C25.2,3.2,25.9,3.9,26,4.7"/>
		<path class="st1" d="M19.9,7.4c0,1.1-0.9,2-2,2.1c-1.1,0-2-0.9-2-2c0,0,0-0.1,0-0.1c0-1.1,0.8-2,1.9-2.1c0,0,0.1,0,0.1,0
			C19,5.3,19.9,6.3,19.9,7.4"/>
		<path class="st1" d="M13.7,10.1c0,1.1-0.9,2-2,2c-1.1,0-2-0.9-2-2c0,0,0,0,0,0c0-1.1,0.9-2,2-2S13.7,9,13.7,10.1"/>
		<path class="st1" d="M29.1,46.9c0,0.2-0.2,0.4-0.4,0.4c-0.2,0-0.4-0.2-0.4-0.4s0.2-0.4,0.4-0.4C28.9,46.4,29.1,46.6,29.1,46.9"/>
		<path class="st1" d="M29.2,44.1c0,0.2-0.1,0.4-0.3,0.4c-0.2,0-0.4-0.2-0.4-0.4c0-0.2,0.2-0.4,0.4-0.4C29,43.7,29.2,43.9,29.2,44.1
			"/>
		<path class="st1" d="M68.2,20.7c-1,0.4-2.2-0.1-2.6-1.2c0,0,0-0.1,0-0.1c-0.4-1.1,0.2-2.2,1.2-2.6c1.1-0.3,2.2,0.2,2.6,1.3
			C69.8,19.1,69.3,20.3,68.2,20.7"/>
		<path class="st1" d="M49.1,7.6c-1,0.4-2.1-0.2-2.4-1.1c-0.3-1,0.2-2.1,1.2-2.4c0,0,0,0,0,0c0.9-0.3,2,0.2,2.3,1.1c0,0,0,0,0,0
			C50.6,6.2,50.1,7.3,49.1,7.6"/>
		<path class="st1" d="M53.5,11.7c-1,0.4-2.1-0.2-2.4-1.1c-0.4-1,0.2-2.1,1.1-2.4c1-0.2,2.1,0.4,2.3,1.4
			C54.7,10.4,54.2,11.3,53.5,11.7"/>
		<path class="st1" d="M57.8,15.9c-1,0.3-2.1-0.2-2.4-1.2c0,0,0,0,0,0c-0.2-1,0.4-2.1,1.4-2.3c0.9-0.2,1.7,0.2,2.1,1
			C59.3,14.4,58.8,15.5,57.8,15.9"/>
		<path class="st1" d="M62,20.5c-1,0.1-1.9-0.6-2-1.6c-0.1-0.7,0.3-1.4,0.9-1.8c0.9-0.3,1.8,0.1,2.1,1c0,0.1,0,0.1,0,0.2
			C63.4,19.1,62.9,20.1,62,20.5C62,20.5,62,20.5,62,20.5"/>
		<path class="st1" d="M56.8,20.5c-0.7,0.3-1.5-0.1-1.8-0.8c0,0,0,0,0-0.1c-0.3-0.7,0-1.5,0.7-1.8c0.1,0,0.1-0.1,0.2-0.1
			c0.6-0.3,1.4,0,1.7,0.6c0,0.1,0.1,0.2,0.1,0.2c0.3,0.7,0,1.5-0.7,1.8C56.9,20.4,56.8,20.5,56.8,20.5"/>
		<path class="st1" d="M51.9,20.7c-0.6,0.2-1.3-0.1-1.6-0.7c-0.2-0.6,0.1-1.3,0.7-1.5c0,0,0,0,0,0c0.6-0.2,1.2,0.1,1.5,0.6
			c0,0,0,0,0,0c0.3,0.6,0,1.2-0.5,1.5C52,20.7,52,20.7,51.9,20.7"/>
		<path class="st1" d="M48.2,21.4c-0.5,0.2-1-0.1-1.2-0.6c0,0,0,0,0,0c-0.2-0.5,0.1-1,0.6-1.2c0,0,0,0,0,0c0.5-0.2,1,0,1.2,0.5
			C49,20.6,48.7,21.2,48.2,21.4"/>
		<path class="st1" d="M44.8,21.9c-0.3,0.2-0.7,0.1-0.8-0.2c0,0,0-0.1,0-0.1c-0.1-0.4,0.1-0.7,0.4-0.9c0.3-0.2,0.7-0.1,0.8,0.2
			c0,0,0,0.1,0,0.1C45.3,21.4,45.1,21.8,44.8,21.9"/>
		<path class="st1" d="M44.1,9.5c-0.8,0.3-1.8-0.1-2.1-0.9c0,0,0-0.1,0-0.1c-0.3-0.9,0.1-1.9,1-2.2c0,0,0,0,0,0
			c0.8-0.3,1.8,0.1,2.1,0.9c0,0,0,0.1,0,0.1C45.5,8.1,45,9.1,44.1,9.5C44.1,9.5,44.1,9.5,44.1,9.5"/>
		<path class="st1" d="M48.7,12.8c-0.9,0.3-1.9-0.1-2.2-1c0,0,0-0.1,0-0.1c-0.3-0.9,0.2-1.9,1.1-2.2c0.9-0.3,1.9,0.2,2.2,1.1
			C50,11.5,49.6,12.5,48.7,12.8"/>
		<path class="st1" d="M44.5,14.1c-0.8,0.3-1.6,0-1.9-0.8c0-0.1,0-0.1-0.1-0.2c-0.3-0.8,0-1.7,0.8-2c0,0,0.1,0,0.1,0
			c0.8-0.3,1.7,0,2,0.8c0,0,0,0.1,0,0.1C45.9,12.8,45.4,13.8,44.5,14.1"/>
		<path class="st1" d="M48.7,17.5c-0.8,0.3-1.8-0.1-2.1-1c-0.2-0.9,0.2-1.8,1-2.2c0.8-0.3,1.7,0.2,2,1c0,0,0,0,0,0.1
			c0.3,0.8,0,1.7-0.8,2C48.8,17.5,48.7,17.5,48.7,17.5"/>
		<path class="st1" d="M41.1,15.7c-0.8,0.3-1.6-0.1-1.9-0.9c0,0,0,0,0,0c-0.2-0.8,0.1-1.6,0.9-1.9c0.7-0.3,1.5,0,1.8,0.7
			c0,0.1,0.1,0.1,0.1,0.2C42.3,14.6,41.9,15.4,41.1,15.7C41.2,15.7,41.1,15.7,41.1,15.7"/>
		<path class="st1" d="M44.9,18.5c-0.7,0.3-1.6,0-2-0.7c-0.3-0.7,0-1.6,0.7-2c0.1,0,0.2-0.1,0.3-0.1c0.6-0.3,1.4,0,1.7,0.6
			c0,0.1,0.1,0.2,0.1,0.2c0.3,0.7,0,1.5-0.7,1.8C45,18.4,44.9,18.5,44.9,18.5"/>
		<path class="st1" d="M38,17.7c-0.6,0.3-1.3,0-1.6-0.6c0,0,0-0.1-0.1-0.1c-0.3-0.7,0-1.5,0.7-1.8c0.7-0.3,1.5,0,1.8,0.7
			c0.3,0.7,0,1.5-0.7,1.8C38.1,17.7,38.1,17.7,38,17.7"/>
		<path class="st1" d="M41.7,19.7c-0.6,0.3-1.3,0-1.6-0.6c0,0,0-0.1-0.1-0.1c-0.4-0.6-0.3-1.5,0.3-1.9c0.6-0.4,1.5-0.3,1.9,0.3
			c0.1,0.2,0.2,0.4,0.2,0.6c0.3,0.7-0.1,1.4-0.7,1.7C41.8,19.7,41.7,19.7,41.7,19.7"/>
		<path class="st1" d="M35.8,20.3c-0.6,0.2-1.3-0.1-1.6-0.7c-0.2-0.6,0.1-1.3,0.7-1.5c0,0,0,0,0,0c0.6-0.2,1.2,0.1,1.5,0.6
			c0,0,0,0,0,0c0.3,0.6,0,1.2-0.5,1.5C36,20.3,35.9,20.3,35.8,20.3"/>
		<path class="st1" d="M39.2,21.5c-0.6,0.2-1.3-0.1-1.6-0.8s0.1-1.3,0.8-1.6c0.6-0.2,1.3,0.1,1.5,0.7c0,0,0,0,0,0
			C40.2,20.6,39.9,21.3,39.2,21.5"/>
		<path class="st1" d="M34.4,23c-0.5,0.2-1.1,0-1.4-0.6c0,0,0-0.1,0-0.1c-0.2-0.6,0.1-1.2,0.6-1.4c0.5-0.2,1.1,0,1.4,0.6
			c0,0,0,0.1,0,0.1C35.1,22.2,34.9,22.7,34.4,23"/>
		<path class="st1" d="M37.4,23.4c-0.5,0.2-1.1,0-1.4-0.6c0,0,0,0,0-0.1c-0.2-0.6,0.1-1.2,0.6-1.5c0.6-0.2,1.2,0.1,1.4,0.7
			C38.2,22.6,37.9,23.2,37.4,23.4"/>
		<path class="st1" d="M33.1,25.3c-0.5,0.2-1,0-1.3-0.5c-0.2-0.5,0-1,0.5-1.3c0.5-0.2,1,0,1.3,0.5c0,0,0,0,0,0
			C33.8,24.5,33.5,25.1,33.1,25.3"/>
		<path class="st1" d="M35.8,25.4c-0.5,0.2-1-0.1-1.2-0.6c0,0,0,0,0,0c-0.2-0.5,0.1-1,0.6-1.2c0.5-0.2,1,0.1,1.2,0.6l0,0
			C36.5,24.7,36.3,25.3,35.8,25.4C35.8,25.4,35.8,25.4,35.8,25.4"/>
		<path class="st1" d="M32,27.3c-0.4,0.1-0.8-0.1-1-0.4c-0.2-0.4,0-0.9,0.4-1c0,0,0.1,0,0.1,0c0.4-0.2,0.9,0,1,0.4c0,0,0,0,0,0
			C32.7,26.7,32.4,27.2,32,27.3"/>
		<path class="st1" d="M34.5,27.3c-0.4,0.1-0.9-0.1-1-0.5c-0.2-0.4,0-0.9,0.4-1c0,0,0.1,0,0.1,0c0.4-0.1,0.8,0.1,1,0.4
			C35.2,26.6,35,27.1,34.5,27.3"/>
		<path class="st1" d="M31.2,29.3c-0.3,0.1-0.7,0-0.8-0.3c0-0.1,0-0.1-0.1-0.2c-0.1-0.4,0.2-0.7,0.6-0.8c0.3-0.1,0.6,0.1,0.7,0.4
			C31.8,28.7,31.6,29.1,31.2,29.3"/>
		<path class="st1" d="M33.5,28.9c-0.3,0.1-0.7-0.1-0.8-0.4c0,0,0,0,0,0c-0.2-0.3-0.1-0.7,0.2-0.8c0,0,0.1,0,0.1,0
			c0.3-0.1,0.7,0,0.8,0.3c0,0.1,0,0.1,0.1,0.2C34,28.4,33.8,28.8,33.5,28.9"/>
		<path class="st1" d="M30.6,30.9c-0.3,0.1-0.6,0-0.7-0.3c-0.1-0.3,0.1-0.6,0.4-0.6c0.3-0.1,0.6,0.1,0.6,0.4
			C31,30.5,30.9,30.8,30.6,30.9"/>
		<path class="st1" d="M32.8,30.4c-0.3,0.1-0.6,0-0.7-0.3c0,0,0,0,0-0.1c-0.1-0.3,0.1-0.6,0.3-0.7c0.3-0.1,0.6,0.1,0.7,0.3
			C33.3,30,33.1,30.3,32.8,30.4C32.8,30.4,32.8,30.4,32.8,30.4"/>
		<path class="st1" d="M52.9,16.5c-0.8,0.3-1.8-0.1-2.1-0.9c0,0,0-0.1,0-0.1c-0.3-0.9,0.1-1.9,1-2.2c0,0,0,0,0,0
			c0.9-0.3,1.9,0.2,2.2,1.1C54.3,15.2,53.8,16.2,52.9,16.5"/>
		<path class="st1" d="M39.8,11.2c-0.8,0.3-1.6,0-1.9-0.8c0-0.1,0-0.1-0.1-0.2c-0.3-0.8,0-1.7,0.8-2c0,0,0.1,0,0.1,0
			c0.8-0.3,1.7,0,2,0.8c0,0,0,0.1,0,0.1C41.1,10,40.6,10.9,39.8,11.2"/>
		<path class="st1" d="M36.1,13.2c-0.8,0.2-1.6-0.2-1.9-1c-0.2-0.8,0.1-1.6,0.9-1.9c0.9-0.1,1.6,0.5,1.7,1.4
			C36.9,12.3,36.6,12.9,36.1,13.2"/>
		<path class="st1" d="M32.9,15.5c-0.7,0.3-1.4-0.1-1.7-0.7c0,0,0-0.1,0-0.1c-0.2-0.7,0.2-1.5,0.9-1.7c0.7-0.2,1.4,0.2,1.6,0.9
			C33.9,14.4,33.6,15.2,32.9,15.5"/>
		<path class="st1" d="M30.6,18.3c-0.6,0.2-1.2-0.1-1.4-0.7c0,0,0-0.1,0-0.1c-0.2-0.6,0.1-1.3,0.7-1.6c0.6-0.2,1.3,0.2,1.6,0.8
			C31.5,17.4,31.1,18,30.6,18.3"/>
		<path class="st1" d="M28.9,21.3c-0.6,0.2-1.2-0.1-1.4-0.7c-0.2-0.6,0.1-1.2,0.7-1.4c0.6-0.2,1.1,0.1,1.3,0.7c0,0,0,0,0,0
			C29.7,20.4,29.5,21,28.9,21.3C28.9,21.3,28.9,21.3,28.9,21.3"/>
		<path class="st1" d="M32.5,20.7c-0.6,0.2-1.2-0.1-1.4-0.6c-0.2-0.5,0-1.1,0.6-1.4c0,0,0.1,0,0.1,0c0.6-0.2,1.2,0.1,1.4,0.6
			C33.3,19.8,33,20.5,32.5,20.7"/>
		<path class="st1" d="M27.9,24.1c-0.5,0.2-0.9-0.1-1.1-0.5c0,0,0,0,0-0.1c-0.1-0.5,0.1-1,0.5-1.2c0.5-0.2,1,0.1,1.2,0.6
			C28.6,23.4,28.4,24,27.9,24.1"/>
		<path class="st1" d="M31,23.4c-0.5,0.2-0.9-0.1-1.1-0.5c0,0,0,0,0-0.1c-0.2-0.4,0-1,0.4-1.2c0,0,0.1,0,0.1-0.1
			c0.5-0.2,1,0,1.2,0.5C31.8,22.7,31.5,23.2,31,23.4"/>
		<path class="st1" d="M27.3,26.6c-0.4,0.1-0.8-0.1-1-0.4c-0.1-0.5,0.1-0.9,0.5-1.1c0.4-0.1,0.9,0.1,1,0.5
			C27.9,26,27.7,26.5,27.3,26.6C27.3,26.6,27.3,26.6,27.3,26.6"/>
		<path class="st1" d="M29.9,25.8c-0.4,0.1-0.8,0-0.9-0.4c0,0,0-0.1,0-0.2c-0.2-0.4,0-0.9,0.4-1c0,0,0,0,0,0c0.4-0.1,0.9,0.1,1,0.5
			C30.6,25.1,30.4,25.6,29.9,25.8C30,25.8,30,25.8,29.9,25.8"/>
		<path class="st1" d="M26.6,29c-0.4,0.1-0.7-0.1-0.9-0.4c-0.2-0.3-0.1-0.7,0.2-0.8c0,0,0.1,0,0.1,0c0.4-0.1,0.7,0.1,0.9,0.4
			c0.2,0.3,0.1,0.7-0.2,0.8C26.7,29,26.7,29,26.6,29"/>
		<path class="st1" d="M29.2,27.9c-0.4,0.1-0.7-0.2-0.8-0.6c-0.1-0.3,0.1-0.6,0.4-0.7c0.3-0.2,0.8,0,0.9,0.3c0.2,0.3,0,0.8-0.3,0.9
			C29.3,27.9,29.2,27.9,29.2,27.9"/>
		<path class="st1" d="M26.1,30.9c-0.3,0.2-0.5,0-0.7-0.3c-0.1-0.3,0.1-0.6,0.3-0.8c0.3-0.1,0.6,0.1,0.7,0.3
			C26.6,30.6,26.5,30.8,26.1,30.9"/>
		<path class="st1" d="M28.6,29.9c-0.3,0.1-0.6-0.1-0.7-0.3c-0.1-0.3,0-0.6,0.3-0.7c0,0,0,0,0.1,0c0.3-0.1,0.6,0.1,0.7,0.3
			C29.1,29.5,28.9,29.8,28.6,29.9"/>
		<path class="st1" d="M63.7,15.6c-1.1,0.4-2.2-0.2-2.6-1.2c-0.4-1.1,0.2-2.3,1.2-2.7c1.1-0.3,2.2,0.4,2.5,1.5
			C65.1,14.2,64.6,15.2,63.7,15.6"/>
		<path class="st1" d="M59.2,10.6c-1,0.4-2.2-0.2-2.5-1.2c-0.4-1,0.2-2.2,1.2-2.5C58.9,6.5,60,7,60.4,8C60.8,9,60.2,10.2,59.2,10.6"
			/>
		<path class="st1" d="M54.6,5.6c-1,0.4-2.1-0.1-2.5-1.1c0,0,0-0.1,0-0.1c-0.4-1.1,0.2-2.2,1.2-2.6c1.1-0.4,2.2,0.2,2.6,1.2
			c0.4,1-0.1,2.2-1.2,2.6C54.7,5.5,54.6,5.5,54.6,5.6"/>
		<path class="st1" d="M25.8,32.6c-0.2,0.1-0.4,0.1-0.5-0.1c0,0,0-0.1,0-0.1c-0.1-0.3,0-0.5,0.2-0.5c0.2,0,0.5,0,0.5,0.2
			C26,32.2,26,32.6,25.8,32.6"/>
		<path class="st1" d="M28.3,31.9c-0.2,0-0.4-0.1-0.5-0.3c-0.1-0.2,0.1-0.4,0.3-0.5c0.2-0.1,0.4,0,0.5,0.1c0,0,0,0.1,0,0.1
			C28.6,31.5,28.5,31.8,28.3,31.9"/>
		<path class="st1" d="M62.4,61.6c-0.5-1-0.1-2.3,0.9-2.8c0.7-0.4,1.6-0.3,2.3,0.3c0.6,0.9,0.5,2.1-0.3,2.9
			C64.4,62.6,63.1,62.5,62.4,61.6"/>
		<path class="st1" d="M68.2,39.1c-0.7-0.8-0.6-2,0.3-2.7c0.8-0.7,2-0.6,2.7,0.3c0.6,0.8,0.5,2-0.3,2.7C70.1,40,68.9,39.9,68.2,39.1
			C68.2,39.1,68.2,39.1,68.2,39.1"/>
		<path class="st1" d="M65.8,44.5c-0.6-0.8-0.5-2,0.3-2.7c0.8-0.6,2-0.5,2.7,0.4c0.6,0.8,0.5,2-0.4,2.7
			C67.6,45.5,66.4,45.4,65.8,44.5"/>
		<path class="st1" d="M63.5,50c-0.6-0.8-0.5-2,0.3-2.7c0,0,0,0,0,0c0.8-0.6,1.9-0.5,2.6,0.3c0,0,0,0,0,0.1c0.6,0.8,0.5,2-0.3,2.7
			c0,0,0,0,0,0C65.3,51,64.1,50.8,63.5,50C63.5,50,63.5,50,63.5,50"/>
		<path class="st1" d="M60.6,55.6c-0.6-0.8-0.5-1.9,0.3-2.5c0.7-0.6,1.7-0.5,2.3,0.1c0,0,0.1,0.1,0.1,0.1c0.6,0.8,0.5,1.9-0.3,2.5
			C62.3,56.5,61.2,56.4,60.6,55.6"/>
		<path class="st1" d="M58.9,50.6C58.3,50,58.4,49,59,48.5c0.6-0.5,1.6-0.4,2.1,0.2c0.5,0.7,0.4,1.6-0.3,2.2
			C60.3,51.3,59.4,51.3,58.9,50.6C58.9,50.6,58.9,50.6,58.9,50.6"/>
		<path class="st1" d="M56.9,46c-0.4-0.5-0.3-1.3,0.2-1.7s1.3-0.3,1.7,0.2c0.4,0.5,0.3,1.3-0.2,1.7C58.2,46.6,57.4,46.5,56.9,46
			C57,46,56.9,46,56.9,46"/>
		<path class="st1" d="M55.3,42.6c-0.3-0.4-0.3-1,0.1-1.4c0.4-0.3,1-0.2,1.3,0.2c0.3,0.4,0.3,1-0.1,1.4C56.2,43.1,55.6,43,55.3,42.6
			"/>
		<path class="st1" d="M53.6,39.5c-0.2-0.3-0.2-0.7,0.1-1c0.3-0.2,0.8,0,0.9,0.3c0.1,0.2,0.1,0.5-0.1,0.7c-0.2,0.2-0.6,0.3-0.9,0
			C53.6,39.6,53.6,39.5,53.6,39.5"/>
		<path class="st1" d="M64.8,34.8c-0.5-0.8-0.4-1.9,0.3-2.5c0.7-0.6,1.8-0.5,2.4,0.3c0.6,0.8,0.4,1.9-0.3,2.5
			C66.6,35.7,65.5,35.6,64.8,34.8"/>
		<path class="st1" d="M63.3,40.3c-0.6-0.8-0.5-1.9,0.3-2.5c0.7-0.6,1.8-0.5,2.4,0.3c0.6,0.8,0.5,1.9-0.3,2.5
			c-0.7,0.6-1.7,0.5-2.3-0.1C63.3,40.4,63.3,40.3,63.3,40.3"/>
		<path class="st1" d="M60.8,36.7C60.2,36,60.3,35,61,34.5c0.7-0.6,1.6-0.5,2.2,0.2c0,0,0,0,0.1,0.1c0.5,0.7,0.4,1.7-0.3,2.3
			C62.4,37.5,61.4,37.4,60.8,36.7C60.8,36.8,60.8,36.7,60.8,36.7"/>
		<path class="st1" d="M58.9,41.8c-0.7-0.6-0.8-1.6-0.3-2.3c0.6-0.7,1.6-0.8,2.3-0.3c0.2,0.2,0.4,0.4,0.5,0.6
			c0.5,0.7,0.4,1.7-0.3,2.3C60.5,42.7,59.5,42.6,58.9,41.8C59,41.9,59,41.9,58.9,41.8"/>
		<path class="st1" d="M58.1,33.9c-0.5-0.7-0.3-1.6,0.3-2.1c0.6-0.5,1.6-0.4,2.1,0.3c0.5,0.6,0.4,1.6-0.3,2.1
			C59.5,34.7,58.6,34.6,58.1,33.9"/>
		<path class="st1" d="M56.8,38.5c-0.5-0.6-0.4-1.6,0.3-2.1c0.6-0.5,1.6-0.4,2.1,0.3c0.5,0.7,0.3,1.6-0.3,2.1
			C58.2,39.2,57.3,39.1,56.8,38.5C56.8,38.5,56.8,38.5,56.8,38.5"/>
		<path class="st1" d="M55.2,31.7c-0.4-0.6-0.3-1.4,0.3-1.9c0.5-0.5,1.4-0.4,1.8,0.1c0,0,0,0.1,0.1,0.1c0.4,0.6,0.3,1.4-0.3,1.9
			C56.6,32.3,55.8,32.3,55.2,31.7C55.3,31.7,55.2,31.7,55.2,31.7"/>
		<path class="st1" d="M54.6,35.8c-0.4-0.6-0.3-1.4,0.2-1.9c0.5-0.5,1.4-0.4,1.8,0.1c0,0,0,0.1,0.1,0.1c0.4,0.6,0.3,1.4-0.3,1.9
			c-0.5,0.5-1.3,0.4-1.7,0C54.7,35.9,54.6,35.9,54.6,35.8"/>
		<path class="st1" d="M52.1,30.4c-0.4-0.5-0.3-1.3,0.2-1.7c0.5-0.4,1.3-0.3,1.7,0.2c0.4,0.5,0.3,1.3-0.2,1.7
			C53.3,31,52.5,30.9,52.1,30.4C52.1,30.4,52.1,30.4,52.1,30.4"/>
		<path class="st1" d="M52.2,34c-0.4-0.5-0.4-1.3,0.1-1.7c0,0,0,0,0,0c0.6-0.4,1.3-0.3,1.7,0.3c0.4,0.6,0.3,1.3-0.3,1.7
			C53.3,34.7,52.6,34.5,52.2,34"/>
		<path class="st1" d="M49.1,29.8c-0.4-0.4-0.3-1.1,0.2-1.5c0,0,0,0,0,0c0.4-0.4,1.1-0.4,1.5,0.1c0,0,0.1,0.1,0.1,0.1
			c0.4,0.4,0.3,1.1-0.2,1.5c0,0,0,0,0,0c-0.4,0.4-1.1,0.4-1.5-0.1C49.2,29.9,49.2,29.8,49.1,29.8"/>
		<path class="st1" d="M49.7,32.9c-0.3-0.5-0.3-1.2,0.2-1.6c0.4-0.4,1.1-0.3,1.5,0.2c0,0,0,0,0,0c0.4,0.5,0.3,1.2-0.2,1.6
			C50.8,33.4,50.1,33.4,49.7,32.9C49.7,32.9,49.7,32.9,49.7,32.9"/>
		<path class="st1" d="M46.6,29.3c-0.3-0.4-0.3-1,0.1-1.3c0,0,0,0,0.1,0c0.4-0.3,0.9-0.3,1.2,0.1c0,0,0.1,0.1,0.1,0.1
			c0.3,0.4,0.3,0.9-0.1,1.2c0,0-0.1,0.1-0.1,0.1C47.5,29.7,47,29.7,46.6,29.3"/>
		<path class="st1" d="M47.4,32c-0.3-0.4-0.3-1,0.1-1.3c0,0,0,0,0.1,0c0.3-0.4,0.9-0.5,1.3-0.1c0.4,0.3,0.5,0.9,0.1,1.3
			c-0.1,0.1-0.2,0.2-0.4,0.3C48.3,32.4,47.7,32.4,47.4,32"/>
		<path class="st1" d="M44.4,29c-0.3-0.3-0.2-0.8,0.1-1.1c0.3-0.3,0.8-0.2,1.1,0.1l0,0c0.3,0.4,0.3,0.9-0.1,1.2
			C45.1,29.4,44.7,29.4,44.4,29C44.4,29,44.4,29,44.4,29"/>
		<path class="st1" d="M45.3,31.3C45,31,45,30.5,45.4,30.2c0,0,0,0,0,0c0.3-0.3,0.8-0.2,1.1,0.1c0,0,0,0,0,0
			c0.3,0.3,0.3,0.8-0.1,1.1c0,0,0,0,0,0C46.1,31.8,45.6,31.7,45.3,31.3C45.3,31.4,45.3,31.3,45.3,31.3"/>
		<path class="st1" d="M42.4,28.9c-0.2-0.3-0.2-0.7,0.1-1c0.2-0.2,0.6-0.3,0.9,0c0,0,0.1,0.1,0.1,0.1c0.2,0.3,0.2,0.7-0.1,1
			C43,29.2,42.6,29.2,42.4,28.9"/>
		<path class="st1" d="M43.5,31c-0.3-0.3-0.3-0.8,0.1-1c0.2-0.2,0.6-0.3,0.9,0c0,0,0.1,0.1,0.1,0.1c0.2,0.3,0.1,0.7-0.2,1
			C44.1,31.3,43.7,31.3,43.5,31C43.5,31,43.5,31,43.5,31"/>
		<path class="st1" d="M40.6,28.8c-0.2-0.2-0.2-0.5,0-0.7c0,0,0,0,0.1,0c0.2-0.2,0.4-0.2,0.6,0c0,0,0.1,0.1,0.1,0.1
			c0.2,0.2,0.2,0.5,0,0.7c0,0,0,0-0.1,0c-0.2,0.2-0.4,0.2-0.6,0C40.7,28.9,40.6,28.9,40.6,28.8"/>
		<path class="st1" d="M41.8,30.8c-0.2-0.2-0.2-0.5,0-0.7c0.2-0.2,0.5-0.2,0.7,0c0.2,0.2,0.2,0.5,0,0.7c0,0,0,0-0.1,0
			C42.3,31.1,42,31,41.8,30.8"/>
		<path class="st1" d="M61.2,45.6c-0.6-0.8-0.4-1.9,0.3-2.5c0.8-0.6,1.9-0.5,2.5,0.3c0.6,0.8,0.5,1.9-0.3,2.5
			C62.9,46.4,61.8,46.3,61.2,45.6"/>
		<path class="st1" d="M61.9,31.2c-0.4-0.8,0-1.8,0.8-2.2c0.6-0.3,1.2-0.2,1.7,0.2c0.5,0.7,0.4,1.7-0.3,2.3c-0.6,0.6-1.5,0.5-2.1,0
			C62,31.3,61.9,31.2,61.9,31.2"/>
		<path class="st1" d="M58.9,28.3c-0.5-0.7-0.4-1.6,0.3-2.2c0.6-0.5,1.5-0.4,2,0.2c0,0,0,0,0,0.1c0.5,0.6,0.4,1.6-0.2,2.1
			C60.3,29,59.4,28.9,58.9,28.3L58.9,28.3"/>
		<path class="st1" d="M55.6,26c-0.4-0.6-0.3-1.4,0.3-1.9c0.5-0.5,1.3-0.4,1.7,0c0,0,0.1,0.1,0.1,0.1c0.4,0.7,0.1,1.5-0.6,1.9
			C56.6,26.3,56.1,26.3,55.6,26"/>
		<path class="st1" d="M52.3,24.7c-0.4-0.5-0.3-1.3,0.2-1.7c0.5-0.4,1.3-0.3,1.7,0.2c0.4,0.5,0.3,1.3-0.2,1.7
			C53.4,25.2,52.7,25.2,52.3,24.7"/>
		<path class="st1" d="M49,24c-0.3-0.5-0.3-1.2,0.2-1.6c0.5-0.4,1.2-0.3,1.6,0.2c0.5,0.4,0.5,1.1,0.1,1.6c-0.4,0.5-1.1,0.5-1.6,0.1
			C49.1,24.3,49,24.2,49,24"/>
		<path class="st1" d="M50.7,27.3c-0.4-0.5-0.3-1.2,0.2-1.6c0.4-0.4,1.1-0.3,1.5,0.2c0,0,0,0,0,0c0.3,0.5,0.3,1.2-0.2,1.6
			C51.7,27.8,51.1,27.7,50.7,27.3C50.7,27.3,50.7,27.3,50.7,27.3"/>
		<path class="st1" d="M46,24c-0.2-0.5,0-1,0.5-1.3c0.3-0.1,0.7-0.1,1,0.1c0.3,0.4,0.2,1-0.2,1.3c-0.4,0.3-0.9,0.3-1.2-0.1
			C46.1,24,46,24,46,24"/>
		<path class="st1" d="M47.7,26.7c-0.3-0.4-0.3-1,0.1-1.3c0.4-0.3,1-0.3,1.3,0.1c0.3,0.4,0.3,1-0.1,1.4C48.6,27.2,48,27.2,47.7,26.7
			C47.7,26.8,47.7,26.8,47.7,26.7"/>
		<path class="st1" d="M43.4,24.2c-0.3-0.3-0.2-0.8,0.1-1.1c0,0,0,0,0,0c0.3-0.3,0.8-0.3,1.1,0.1c0,0,0,0,0,0
			c0.3,0.3,0.2,0.8-0.1,1.1c0,0,0,0,0,0C44.2,24.6,43.7,24.6,43.4,24.2C43.4,24.2,43.4,24.2,43.4,24.2"/>
		<path class="st1" d="M45.1,26.6c-0.3-0.4-0.2-0.9,0.1-1.2c0.3-0.3,0.8-0.2,1.1,0.1c0,0,0,0,0,0c0.3,0.3,0.3,0.8-0.1,1.1
			c0,0,0,0,0,0C45.9,26.9,45.4,26.9,45.1,26.6C45.2,26.6,45.1,26.6,45.1,26.6"/>
		<path class="st1" d="M41.1,24.3c-0.2-0.3-0.2-0.7,0.1-1c0.3-0.2,0.8,0,0.9,0.3c0.1,0.2,0.1,0.5-0.1,0.7c-0.2,0.2-0.6,0.3-0.9,0
			C41.1,24.4,41.1,24.3,41.1,24.3"/>
		<path class="st1" d="M42.9,26.5c-0.2-0.3-0.2-0.8,0.1-1c0.3-0.2,0.8-0.2,1,0.1c0.2,0.3,0.2,0.8-0.1,1l0,0
			C43.5,26.8,43.1,26.7,42.9,26.5"/>
		<path class="st1" d="M39.1,24.6c-0.2-0.2-0.2-0.5,0-0.7c0,0,0,0,0.1,0c0.2-0.2,0.4-0.2,0.6,0c0,0,0.1,0.1,0.1,0.1
			c0.2,0.2,0.2,0.5,0,0.7c0,0,0,0-0.1,0C39.6,24.8,39.3,24.8,39.1,24.6"/>
		<path class="st1" d="M40.8,26.6c-0.2-0.2-0.1-0.5,0.1-0.8c0.2-0.2,0.6-0.1,0.8,0.1c0.2,0.2,0.2,0.5,0,0.7c0,0,0,0-0.1,0
			C41.4,26.8,41,26.8,40.8,26.6C40.8,26.6,40.8,26.6,40.8,26.6"/>
		<path class="st1" d="M65.6,55.6c-0.6-0.9-0.5-2.1,0.3-2.9c0.9-0.7,2.1-0.6,2.8,0.3c0,0,0,0,0.1,0.1c0.7,0.9,0.5,2.2-0.3,2.9
			C67.5,56.6,66.3,56.5,65.6,55.6"/>
		<path class="st1" d="M68.7,49.6c-0.7-0.9-0.5-2.2,0.3-2.9c0.8-0.7,2-0.6,2.7,0.2c0,0,0.1,0.1,0.1,0.1c0.7,0.9,0.6,2.1-0.3,2.8
			C70.7,50.6,69.4,50.5,68.7,49.6"/>
		<path class="st1" d="M72,43.7c-0.7-0.9-0.6-2.1,0.3-2.9c0.9-0.7,2.1-0.6,2.8,0.3c0,0,0,0,0.1,0.1c0.7,0.9,0.5,2.2-0.3,2.9
			C73.9,44.7,72.6,44.5,72,43.7"/>
		<path class="st1" d="M37.4,24.7c-0.1-0.2-0.1-0.4,0.1-0.5c0.2-0.2,0.4-0.2,0.6,0c0.1,0.2,0.1,0.4-0.1,0.6
			C37.8,24.9,37.6,24.8,37.4,24.7L37.4,24.7"/>
		<path class="st1" d="M39,26.9c-0.1-0.2-0.1-0.5,0.1-0.6c0.2-0.1,0.5-0.1,0.6,0.1c0.1,0.2,0.1,0.4-0.1,0.5
			C39.4,27.1,39.1,27.1,39,26.9"/>
		<path class="st1" d="M22.9,70.2c0.6-0.9,1.8-1.2,2.8-0.6c0,0,0,0,0,0c1,0.6,1.2,1.9,0.6,2.9c-0.6,0.9-1.8,1.2-2.8,0.6c0,0,0,0,0,0
			C22.6,72.5,22.3,71.2,22.9,70.2"/>
		<path class="st1" d="M45.7,68.6c0.5-0.9,1.6-1.2,2.5-0.7c0,0,0.1,0,0.1,0.1c0.9,0.6,1.1,1.7,0.6,2.6c-0.5,0.9-1.6,1.2-2.5,0.7
			c0,0-0.1,0-0.1-0.1C45.5,70.6,45.2,69.5,45.7,68.6"/>
		<path class="st1" d="M39.9,68.1c0.5-0.8,1.5-1.2,2.4-0.7c0.1,0,0.1,0.1,0.2,0.1c0.9,0.5,1.2,1.6,0.7,2.5c0,0,0,0.1-0.1,0.1
			c-0.5,0.9-1.6,1.2-2.5,0.7c0,0-0.1,0-0.1-0.1C39.6,70.1,39.3,69,39.9,68.1C39.9,68.1,39.9,68.1,39.9,68.1"/>
		<path class="st1" d="M34,67.5c0.5-0.9,1.6-1.2,2.5-0.7c0,0,0.1,0,0.1,0.1c0.8,0.7,0.9,1.9,0.2,2.7c-0.5,0.7-1.5,0.9-2.2,0.5
			C33.8,69.6,33.5,68.4,34,67.5"/>
		<path class="st1" d="M27.9,66.5c0.5-0.8,1.5-1,2.3-0.5c0.8,0.5,1.1,1.6,0.5,2.4c0,0,0,0,0,0c-0.5,0.8-1.5,1-2.3,0.6
			c0,0-0.1,0-0.1-0.1C27.7,68.4,27.4,67.3,27.9,66.5C27.9,66.5,27.9,66.5,27.9,66.5"/>
		<path class="st1" d="M32,63.2c0.4-0.7,1.2-0.9,1.9-0.5c0,0,0.1,0,0.1,0.1c0.7,0.5,0.9,1.4,0.4,2.1c-0.4,0.7-1.2,0.9-1.9,0.5
			c0,0-0.1,0-0.1-0.1C31.8,64.8,31.6,63.9,32,63.2"/>
		<path class="st1" d="M35.7,59.9c0.4-0.5,1.1-0.7,1.6-0.3c0.6,0.4,0.7,1.1,0.4,1.7c0,0,0,0,0,0.1c-0.4,0.5-1.1,0.7-1.6,0.3
			C35.5,61.2,35.3,60.5,35.7,59.9"/>
		<path class="st1" d="M38.3,57.2c0.3-0.5,0.8-0.6,1.3-0.3c0.4,0.3,0.6,0.9,0.3,1.3c0,0,0,0.1-0.1,0.1c-0.4,0.4-1,0.4-1.4,0
			C38.2,58,38.1,57.6,38.3,57.2"/>
		<path class="st1" d="M40.6,54.6c0.2-0.3,0.6-0.5,0.9-0.3c0,0,0,0,0,0c0.3,0.2,0.3,0.6,0.2,1c-0.2,0.3-0.6,0.5-0.9,0.3c0,0,0,0,0,0
			C40.5,55.3,40.5,54.9,40.6,54.6"/>
		<path class="st1" d="M48.6,64c0.5-0.8,1.6-1.1,2.4-0.5c0,0,0,0,0,0c0.8,0.5,1,1.6,0.5,2.4c-0.5,0.8-1.6,1-2.4,0.5
			C48.3,65.9,48.1,64.8,48.6,64"/>
		<path class="st1" d="M43.1,64.1c0.5-0.8,1.5-1,2.3-0.5c0.8,0.5,1.1,1.6,0.5,2.4c0,0,0,0,0,0c-0.4,0.8-1.3,1.1-2.1,0.7
			c-0.1,0-0.2-0.1-0.2-0.2C42.8,66.1,42.5,65,43.1,64.1C43,64.2,43,64.2,43.1,64.1"/>
		<path class="st1" d="M45.5,60.6c0.5-0.8,1.5-1,2.3-0.5c0.8,0.5,1,1.5,0.5,2.3c-0.5,0.8-1.5,1-2.3,0.5c0,0,0,0,0,0
			C45.2,62.4,45,61.4,45.5,60.6"/>
		<path class="st1" d="M40.2,60.5c0.4-0.7,1.3-1,2-0.6c0.1,0,0.1,0.1,0.2,0.1c0.8,0.4,1.2,1.4,0.8,2.2S41.8,63.4,41,63
			c-0.1-0.1-0.2-0.1-0.3-0.2C39.9,62.2,39.7,61.2,40.2,60.5"/>
		<path class="st1" d="M47.2,57.2c0.4-0.7,1.4-0.9,2.1-0.5c0.6,0.5,0.8,1.4,0.4,2.1c-0.4,0.7-1.3,0.9-2,0.5c0,0,0,0,0,0
			C47,58.8,46.8,58,47.2,57.2C47.2,57.3,47.2,57.2,47.2,57.2"/>
		<path class="st1" d="M42.6,57.3c0.4-0.7,1.2-0.9,1.9-0.5c0,0,0.1,0,0.1,0.1c0.7,0.5,0.9,1.4,0.4,2.1c-0.4,0.7-1.2,0.9-1.9,0.5
			c0,0-0.1,0-0.1-0.1C42.4,58.9,42.2,58,42.6,57.3"/>
		<path class="st1" d="M48.4,53.6c0.4-0.6,1.2-0.8,1.8-0.4c0.6,0.3,0.9,1.1,0.5,1.8c0,0.1-0.1,0.1-0.1,0.1c-0.4,0.6-1.2,0.8-1.8,0.5
			c0,0,0,0,0,0C48.3,55.1,48.1,54.3,48.4,53.6"/>
		<path class="st1" d="M44.4,54.3c0.4-0.6,1.3-0.8,1.9-0.3c0.6,0.4,0.8,1.2,0.4,1.8c0,0,0,0,0,0c-0.3,0.6-1,0.9-1.6,0.6
			c-0.1,0-0.1-0.1-0.2-0.1C44.2,55.8,44,55,44.4,54.3"/>
		<path class="st1" d="M48.6,50.2c0.4-0.5,1.1-0.7,1.6-0.3c0.6,0.4,0.8,1.1,0.4,1.7c-0.4,0.6-1.2,0.7-1.7,0.3
			C48.4,51.5,48.2,50.7,48.6,50.2L48.6,50.2"/>
		<path class="st1" d="M45.2,51.5c0.3-0.6,1.1-0.8,1.6-0.4c0.6,0.4,0.8,1.1,0.4,1.7c-0.4,0.6-1.2,0.7-1.7,0.3
			C45,52.8,44.9,52,45.2,51.5"/>
		<path class="st1" d="M48.3,47.2c0.3-0.5,0.9-0.7,1.4-0.4c0,0,0,0,0.1,0c0.4,0.4,0.6,1,0.3,1.5c-0.3,0.5-0.9,0.7-1.4,0.4
			c0,0,0,0-0.1,0C48.1,48.3,48,47.7,48.3,47.2"/>
		<path class="st1" d="M45.6,48.7c0.3-0.5,1-0.6,1.5-0.3c0.5,0.3,0.6,1,0.3,1.5l0,0c-0.3,0.5-0.9,0.7-1.4,0.4c0,0,0,0-0.1,0
			C45.4,49.9,45.3,49.2,45.6,48.7"/>
		<path class="st1" d="M47.9,44.5c0.3-0.4,0.8-0.5,1.2-0.3c0,0,0,0,0,0c0.5,0.3,0.6,0.8,0.3,1.3c-0.3,0.4-0.8,0.6-1.3,0.3
			C47.7,45.6,47.6,45.1,47.9,44.5C47.9,44.6,47.9,44.6,47.9,44.5"/>
		<path class="st1" d="M45.7,46.2c0.2-0.4,0.8-0.6,1.2-0.3c0,0,0.1,0.1,0.1,0.1c0.4,0.3,0.5,0.9,0.3,1.3c-0.4,0.4-1,0.4-1.4,0
			C45.6,47,45.5,46.5,45.7,46.2"/>
		<path class="st1" d="M47.4,42.3c0.2-0.4,0.7-0.5,1.1-0.3c0.4,0.2,0.5,0.7,0.3,1.1c-0.2,0.4-0.7,0.5-1.1,0.3c0,0,0,0-0.1,0
			C47.3,43.1,47.2,42.7,47.4,42.3"/>
		<path class="st1" d="M45.6,44c0.2-0.3,0.6-0.5,0.9-0.3c0,0,0.1,0,0.1,0.1c0.4,0.2,0.5,0.7,0.3,1.1c0,0,0,0,0,0.1
			c-0.3,0.3-0.7,0.4-1.1,0.3C45.4,44.9,45.3,44.4,45.6,44C45.5,44,45.6,44,45.6,44"/>
		<path class="st1" d="M46.9,40.3c0.2-0.3,0.6-0.3,1-0.2c0.3,0.2,0.4,0.5,0.3,0.8c0,0.1-0.1,0.1-0.1,0.1c-0.2,0.3-0.6,0.3-0.9,0.2
			C46.8,41,46.7,40.6,46.9,40.3C46.9,40.3,46.9,40.3,46.9,40.3"/>
		<path class="st1" d="M45.3,42c0.2-0.3,0.6-0.5,0.9-0.3c0.3,0.2,0.5,0.6,0.3,0.9c0,0.1-0.1,0.1-0.1,0.2c-0.2,0.3-0.5,0.4-0.8,0.3
			c-0.1,0-0.1-0.1-0.1-0.1C45.2,42.7,45.1,42.3,45.3,42"/>
		<path class="st1" d="M46.4,38.6c0.1-0.2,0.3-0.3,0.6-0.3c0.1,0,0.1,0,0.1,0.1c0.2,0.1,0.3,0.5,0.2,0.7c-0.2,0.2-0.5,0.3-0.8,0.2
			C46.3,39.1,46.3,38.8,46.4,38.6"/>
		<path class="st1" d="M45,40.4c0.2-0.2,0.5-0.3,0.7-0.1c0.2,0.2,0.3,0.5,0.1,0.7l0,0c-0.1,0.2-0.3,0.3-0.6,0.3
			c-0.1,0-0.1,0-0.1-0.1C44.9,41,44.8,40.6,45,40.4"/>
		<path class="st1" d="M37.5,63.9c0.5-0.8,1.5-1,2.3-0.5c0.8,0.5,1.1,1.6,0.5,2.4c0,0,0,0,0,0c-0.5,0.8-1.5,1-2.3,0.6
			c0,0-0.1,0-0.1-0.1C37.2,65.8,37,64.7,37.5,63.9C37.5,63.9,37.5,63.9,37.5,63.9"/>
		<path class="st1" d="M51,59.9c0.4-0.7,1.4-1,2.1-0.5c0,0,0,0,0,0c0.8,0.5,1,1.5,0.5,2.3c-0.4,0.8-1.4,1-2.1,0.6
			c0,0-0.1-0.1-0.1-0.1C50.7,61.6,50.5,60.6,51,59.9"/>
		<path class="st1" d="M52.8,56.1c0.4-0.7,1.3-0.9,2-0.5c0.7,0.5,0.9,1.4,0.4,2.1c-0.4,0.7-1.3,0.9-2,0.5
			C52.5,57.7,52.4,56.8,52.8,56.1"/>
		<path class="st1" d="M53.9,52.3c0.3-0.6,1-0.9,1.6-0.6c0.1,0,0.1,0.1,0.2,0.1c0.6,0.3,0.9,1.1,0.5,1.8c0,0.1-0.1,0.1-0.1,0.1
			c-0.6,0.5-1.4,0.5-2-0.1C53.8,53.3,53.7,52.7,53.9,52.3"/>
		<path class="st1" d="M54,48.5c0.4-0.5,1.1-0.7,1.6-0.3c0.6,0.4,0.8,1.1,0.4,1.7c-0.4,0.5-1.1,0.7-1.6,0.3
			C53.8,49.9,53.7,49.1,54,48.5"/>
		<path class="st1" d="M53.6,45.1c0.3-0.5,1-0.6,1.4-0.3c0,0,0,0,0,0c0.5,0.3,0.6,1,0.3,1.5c-0.3,0.5-1,0.6-1.5,0.3
			C53.4,46.4,53.2,45.7,53.6,45.1C53.6,45.1,53.6,45.1,53.6,45.1"/>
		<path class="st1" d="M51,47.8c0.3-0.5,1-0.7,1.6-0.4c0,0,0,0,0,0c0.5,0.4,0.6,1,0.3,1.6c-0.3,0.5-1,0.6-1.4,0.3c0,0,0,0,0,0
			C50.9,49,50.8,48.3,51,47.8"/>
		<path class="st1" d="M52.6,42.3c0.4-0.4,1-0.4,1.4,0c0.3,0.3,0.4,0.7,0.2,1.1c-0.2,0.5-0.8,0.7-1.3,0.5c-0.5-0.2-0.7-0.8-0.5-1.3
			C52.5,42.5,52.5,42.4,52.6,42.3"/>
		<path class="st1" d="M50.6,44.8c0.2-0.4,0.8-0.6,1.2-0.3c0,0,0.1,0.1,0.1,0.1c0.4,0.3,0.6,0.9,0.3,1.3c-0.3,0.4-0.9,0.6-1.3,0.3
			C50.4,45.8,50.3,45.3,50.6,44.8C50.6,44.8,50.6,44.8,50.6,44.8"/>
		<path class="st1" d="M51.6,39.8c0.3-0.3,0.7-0.4,1.1-0.3c0.4,0.3,0.5,0.8,0.3,1.2c-0.2,0.4-0.7,0.4-1.1,0.2c0,0,0,0,0,0
			C51.5,40.7,51.3,40.2,51.6,39.8"/>
		<path class="st1" d="M50,42.3c0.2-0.4,0.7-0.5,1.1-0.3c0,0,0,0,0.1,0c0.4,0.2,0.4,0.7,0.2,1.1c0,0,0,0,0,0
			c-0.2,0.3-0.6,0.5-0.9,0.3c0,0-0.1,0-0.1-0.1C49.9,43.2,49.7,42.7,50,42.3C50,42.3,50,42.3,50,42.3"/>
		<path class="st1" d="M50.7,37.7c0.2-0.3,0.6-0.5,0.9-0.3c0,0,0,0,0,0c0.3,0.2,0.4,0.5,0.3,0.8c0,0.1-0.1,0.1-0.1,0.1
			c-0.1,0.3-0.4,0.4-0.7,0.3c-0.1,0-0.1-0.1-0.2-0.1C50.6,38.4,50.5,38,50.7,37.7C50.7,37.7,50.7,37.7,50.7,37.7"/>
		<path class="st1" d="M49.3,40c0.2-0.3,0.6-0.3,1-0.2c0.3,0.2,0.4,0.5,0.3,0.8c0,0.1-0.1,0.1-0.1,0.1c-0.2,0.3-0.6,0.4-0.8,0.2
			c0,0,0,0,0,0C49.2,40.8,49.1,40.4,49.3,40C49.3,40,49.3,40,49.3,40"/>
		<path class="st1" d="M49.9,35.8c0.2-0.2,0.5-0.2,0.7-0.1c0.2,0.1,0.3,0.3,0.3,0.6c0,0.1,0,0.1-0.1,0.1c-0.1,0.2-0.3,0.3-0.6,0.3
			c-0.1,0-0.1,0-0.1-0.1C49.8,36.4,49.8,36,49.9,35.8"/>
		<path class="st1" d="M48.5,38.1c0.2-0.3,0.5-0.4,0.8-0.2c0.3,0.2,0.4,0.5,0.2,0.8c-0.2,0.3-0.5,0.4-0.8,0.2c0,0,0,0-0.1,0
			C48.4,38.7,48.4,38.4,48.5,38.1"/>
		<path class="st1" d="M29.5,71.3c0.6-0.9,1.8-1.2,2.8-0.6c0,0,0,0,0,0c1,0.6,1.2,1.9,0.6,2.9c-0.6,0.9-1.8,1.2-2.8,0.6c0,0,0,0,0,0
			C29.2,73.6,28.9,72.3,29.5,71.3"/>
		<path class="st1" d="M36.1,72.5c0.6-0.9,1.8-1.2,2.8-0.6c0,0,0,0,0,0c0.9,0.7,1.2,1.9,0.6,2.9c-0.6,0.9-1.8,1.2-2.8,0.6
			c0,0,0,0,0,0C35.8,74.7,35.5,73.4,36.1,72.5"/>
		<path class="st1" d="M42.7,73.6c0.6-0.9,1.8-1.2,2.8-0.6c0,0,0,0,0,0c0.9,0.7,1.1,1.9,0.6,2.9c-0.6,0.9-1.8,1.2-2.8,0.6
			c0,0,0,0,0,0C42.4,75.8,42.1,74.6,42.7,73.6"/>
		<path class="st1" d="M49.2,34.2c0.2-0.2,0.4-0.2,0.6-0.1c0.2,0.1,0.2,0.3,0.1,0.5c-0.1,0.2-0.3,0.3-0.4,0.2c0,0-0.1,0-0.1,0
			C49.1,34.6,49.1,34.5,49.2,34.2"/>
		<path class="st1" d="M47.7,36.5c0.1-0.2,0.3-0.4,0.5-0.3c0.2,0.1,0.4,0.3,0.3,0.5c0,0.1-0.1,0.2-0.2,0.2c-0.1,0.2-0.3,0.2-0.5,0.1
			c0,0,0,0,0,0C47.6,36.9,47.6,36.7,47.7,36.5C47.6,36.5,47.6,36.5,47.7,36.5"/>
		<path class="st1" d="M2.7,32.6c1,0.3,1.6,1.3,1.4,2.3C4,34.9,4,35,4,35.1c-0.4,1-1.4,1.6-2.5,1.4c-1.1-0.4-1.6-1.5-1.3-2.6
			c0.3-1,1.3-1.6,2.3-1.4C2.6,32.5,2.6,32.5,2.7,32.6"/>
		<path class="st1" d="M10.5,54.4c1,0.3,1.5,1.4,1.2,2.4c0,0,0,0,0,0c-0.3,1-1.3,1.5-2.3,1.2c0,0-0.1,0-0.1,0
			c-1-0.3-1.5-1.4-1.2-2.3c0.2-1,1.2-1.6,2.2-1.3C10.4,54.4,10.5,54.4,10.5,54.4"/>
		<path class="st1" d="M9.4,48.5c1,0.3,1.6,1.4,1.3,2.4c-0.3,1-1.4,1.5-2.3,1.2c-1-0.2-1.6-1.2-1.3-2.2c0,0,0-0.1,0-0.1
			C7.3,48.8,8.4,48.2,9.4,48.5"/>
		<path class="st1" d="M8.2,42.6C9.3,43,9.8,44,9.5,45c-0.3,1-1.3,1.5-2.3,1.3c-1-0.3-1.6-1.4-1.3-2.4C6.2,42.9,7.2,42.3,8.2,42.6"
			/>
		<path class="st1" d="M7.6,36.4c0.9,0.3,1.4,1.2,1.2,2.2c0,0,0,0.1,0,0.1c-0.2,0.9-1.1,1.4-2,1.2c-0.1,0-0.1,0-0.2,0
			c-0.9-0.3-1.4-1.3-1.1-2.2C5.6,36.7,6.6,36.1,7.6,36.4C7.5,36.4,7.5,36.4,7.6,36.4"/>
		<path class="st1" d="M11.8,39.5c0.8,0.2,1.2,1.1,1,1.9c-0.2,0.8-1.1,1.2-1.9,1c-0.8-0.2-1.2-1.1-1-1.8c0,0,0,0,0-0.1
			c0.2-0.7,1-1.2,1.7-1C11.7,39.5,11.8,39.5,11.8,39.5"/>
		<path class="st1" d="M15.9,42.2c0.6,0.2,1,0.9,0.8,1.6c-0.3,0.6-1.1,0.8-1.7,0.4c-0.4-0.2-0.6-0.7-0.6-1.1
			C14.6,42.4,15.2,42,15.9,42.2"/>
		<path class="st1" d="M19.2,44c0.5,0.2,0.8,0.7,0.6,1.2c0,0,0,0,0,0c-0.1,0.5-0.6,0.7-1.1,0.6c0,0-0.1,0-0.1,0
			c-0.5-0.2-0.8-0.6-0.7-1.1C18.1,44.2,18.6,43.9,19.2,44C19.1,44,19.2,44,19.2,44"/>
		<path class="st1" d="M22.3,45.6c0.3,0.2,0.5,0.5,0.4,0.9c-0.2,0.3-0.5,0.6-0.9,0.4c-0.3-0.1-0.5-0.4-0.4-0.7c0,0,0,0,0,0
			C21.5,45.7,21.9,45.5,22.3,45.6C22.3,45.6,22.3,45.6,22.3,45.6"/>
		<path class="st1" d="M15.6,56c0.9,0.4,1.4,1.3,1.1,2.3c-0.3,0.9-1.3,1.4-2.2,1c-0.9-0.3-1.4-1.3-1-2.2
			C13.8,56.2,14.7,55.7,15.6,56"/>
		<path class="st1" d="M13.9,50.6c0.9,0.3,1.4,1.3,1.1,2.2c-0.2,0.9-1.2,1.5-2.1,1.2c0,0,0,0,0,0c-0.9-0.3-1.4-1.3-1.1-2.3
			c0.2-0.9,1.1-1.4,2-1.2C13.8,50.6,13.8,50.6,13.9,50.6"/>
		<path class="st1" d="M17.9,52.1c0.9,0.3,1.4,1.1,1.1,2c-0.3,0.9-1.1,1.4-2,1.1c-0.9-0.3-1.4-1.2-1.1-2.1
			C16.1,52.3,17,51.8,17.9,52.1C17.8,52.1,17.9,52.1,17.9,52.1"/>
		<path class="st1" d="M16.6,46.8c0.8,0.2,1.3,1.1,1.1,1.9c0,0,0,0,0,0.1c-0.3,0.9-1.1,1.4-2,1.1c-0.9-0.3-1.3-1.2-1-2.1
			C14.8,47,15.7,46.5,16.6,46.8C16.5,46.8,16.6,46.8,16.6,46.8"/>
		<path class="st1" d="M21.6,52.8c0.8,0.2,1.2,1.1,1,1.8c0,0,0,0,0,0.1c-0.2,0.7-1,1.2-1.7,1c0,0-0.1,0-0.1,0
			c-0.8-0.2-1.2-1.1-1-1.9C20,53,20.8,52.5,21.6,52.8"/>
		<path class="st1" d="M20.2,48.3c0.8,0.3,1.2,1.1,1,1.9c-0.2,0.7-1,1.2-1.7,1c0,0-0.1,0-0.1,0c-0.7-0.2-1.2-1-1-1.7
			c0,0,0-0.1,0-0.1C18.6,48.5,19.4,48,20.2,48.3C20.2,48.3,20.2,48.3,20.2,48.3"/>
		<path class="st1" d="M25.3,53c0.7,0.2,1.1,0.9,0.9,1.6c0,0,0,0,0,0c-0.2,0.7-0.9,1.1-1.6,1c0,0-0.1,0-0.1,0
			c-0.7-0.2-1.1-1-0.9-1.7C23.8,53.2,24.5,52.8,25.3,53C25.2,53,25.2,53,25.3,53"/>
		<path class="st1" d="M23.5,49.2c0.7,0.2,1.1,1,0.9,1.7c-0.2,0.7-0.9,1.1-1.6,0.9c0,0,0,0,0,0c-0.7-0.2-1.1-1-1-1.7
			C22,49.4,22.8,49,23.5,49.2"/>
		<path class="st1" d="M28.6,52.3c0.6,0.1,1,0.7,0.9,1.3c0,0.1,0,0.1-0.1,0.2c0,0.7-0.6,1.2-1.3,1.1s-1.2-0.6-1.1-1.3
			c0-0.2,0.1-0.4,0.2-0.6C27.3,52.5,27.9,52.1,28.6,52.3"/>
		<path class="st1" d="M26.5,49.3c0.6,0.2,1,0.8,0.8,1.4c0,0,0,0.1,0,0.1c-0.2,0.6-0.8,1-1.5,0.9c-0.6-0.3-0.9-0.9-0.8-1.6
			c0.2-0.6,0.8-1,1.4-0.8C26.4,49.3,26.4,49.3,26.5,49.3"/>
		<path class="st1" d="M31.3,51c0.6,0.2,0.9,0.8,0.7,1.4c-0.2,0.6-0.7,0.9-1.3,0.7c0,0,0,0,0,0c-0.6-0.2-0.9-0.8-0.8-1.4
			C30.2,51.2,30.8,50.9,31.3,51"/>
		<path class="st1" d="M29.2,48.8c0.6,0.2,0.9,0.8,0.7,1.4c-0.2,0.6-0.8,0.9-1.4,0.8c-0.6-0.2-0.9-0.8-0.7-1.4
			C27.9,49,28.6,48.6,29.2,48.8"/>
		<path class="st1" d="M33.7,50c0.5,0.1,0.7,0.6,0.6,1.1c0,0,0,0.1,0,0.1c-0.1,0.5-0.6,0.8-1.1,0.7c-0.5-0.2-0.8-0.7-0.6-1.2
			c0,0,0,0,0,0c0-0.4,0.4-0.7,0.9-0.7C33.5,49.9,33.6,50,33.7,50"/>
		<path class="st1" d="M31.5,48.2c0.5,0.2,0.8,0.7,0.7,1.2C32,49.9,31.5,50.2,31,50c0,0,0,0,0,0c-0.5-0.1-0.7-0.6-0.6-1.1
			c0,0,0-0.1,0-0.1C30.5,48.4,31,48.1,31.5,48.2"/>
		<path class="st1" d="M35.7,48.9c0.4,0.2,0.7,0.6,0.6,1c-0.1,0.4-0.5,0.7-1,0.5c0,0-0.1,0-0.1,0c-0.4-0.1-0.6-0.4-0.6-0.8
			c0-0.1,0-0.1,0-0.2C34.8,49.1,35.3,48.8,35.7,48.9"/>
		<path class="st1" d="M33.6,47.5c0.4,0.1,0.7,0.5,0.5,1c0,0,0,0.1,0,0.1c-0.2,0.4-0.7,0.5-1,0.4c-0.3-0.1-0.5-0.5-0.4-0.8
			C32.7,47.7,33.1,47.4,33.6,47.5C33.6,47.5,33.6,47.5,33.6,47.5"/>
		<path class="st1" d="M37.4,47.8c0.4,0.1,0.6,0.5,0.5,0.8c0,0,0,0,0,0c-0.2,0.3-0.5,0.6-0.9,0.4c-0.3-0.2-0.5-0.6-0.3-0.9
			C36.9,48,37.2,47.8,37.4,47.8"/>
		<path class="st1" d="M35.3,46.8c0.4,0.1,0.6,0.5,0.5,0.8c0,0,0,0,0,0c-0.2,0.3-0.5,0.5-0.9,0.4c-0.4-0.1-0.5-0.5-0.4-0.9
			C34.6,46.9,35,46.7,35.3,46.8C35.3,46.8,35.3,46.8,35.3,46.8"/>
		<path class="st1" d="M38.9,46.9c0.3,0.1,0.5,0.4,0.4,0.7c-0.1,0.3-0.4,0.4-0.7,0.3c-0.3-0.1-0.4-0.3-0.3-0.6
			C38.4,47,38.6,46.8,38.9,46.9"/>
		<path class="st1" d="M36.8,46c0.2,0,0.4,0.2,0.4,0.5c0,0,0,0.1,0,0.1c-0.1,0.3-0.3,0.5-0.6,0.4c-0.3-0.1-0.4-0.4-0.4-0.6
			c0,0,0,0,0-0.1c0-0.2,0.2-0.4,0.5-0.4C36.7,46,36.8,46,36.8,46"/>
		<path class="st1" d="M12.6,45c0.9,0.3,1.4,1.2,1.2,2.2c-0.3,0.9-1.2,1.4-2.2,1.2c-0.9-0.3-1.4-1.2-1.2-2.1
			C10.7,45.4,11.7,44.8,12.6,45"/>
		<path class="st1" d="M20.1,57.2c0.9,0.3,1.4,1.2,1.1,2.1c-0.3,0.9-1.2,1.4-2.1,1.1c-0.9-0.3-1.4-1.2-1.1-2.1
			C18.3,57.4,19.2,57,20.1,57.2"/>
		<path class="st1" d="M24.2,57.9c0.8,0.2,1.2,1.1,1,1.8c0,0,0,0,0,0.1c-0.1,0.8-0.9,1.4-1.7,1.3s-1.4-0.9-1.3-1.7
			c0-0.2,0.1-0.3,0.1-0.5c0.1-0.8,0.9-1.2,1.6-1.1C24.1,57.9,24.2,57.9,24.2,57.9"/>
		<path class="st1" d="M28.1,58c0.7,0.2,1.1,1,0.9,1.7c-0.3,0.7-1,1-1.7,0.7c-0.7-0.3-1-1-0.7-1.7C26.8,58.1,27.5,57.8,28.1,58"/>
		<path class="st1" d="M31.6,57.1c0.6,0.1,1,0.6,0.9,1.2c0,0.1,0,0.2-0.1,0.3c-0.1,0.6-0.7,1-1.3,0.9c-0.1,0-0.1,0-0.2,0
			c-0.6-0.2-1-0.9-0.8-1.6c0.2-0.6,0.8-1,1.4-0.8C31.5,57.1,31.6,57.1,31.6,57.1"/>
		<path class="st1" d="M34.7,55.7c0.6,0.2,0.9,0.7,0.7,1.3c0,0,0,0,0,0c-0.2,0.6-0.8,0.9-1.4,0.8c-0.5-0.3-0.7-1-0.4-1.6
			C33.9,55.9,34.3,55.7,34.7,55.7"/>
		<path class="st1" d="M31.5,54c0.6,0.2,0.9,0.8,0.7,1.4c-0.2,0.6-0.7,0.9-1.3,0.7c0,0,0,0,0,0c-0.6-0.1-0.9-0.7-0.8-1.2
			c0,0,0,0,0-0.1C30.3,54.2,30.9,53.8,31.5,54"/>
		<path class="st1" d="M37.2,54c0.5,0.2,0.8,0.7,0.6,1.2c0,0,0,0,0,0c0,0.4-0.4,0.7-0.9,0.7c-0.1,0-0.2,0-0.3-0.1
			c-0.5-0.2-0.8-0.7-0.6-1.2c0,0,0,0,0,0C36.1,54.1,36.6,53.9,37.2,54C37.1,54,37.1,54,37.2,54"/>
		<path class="st1" d="M34.2,52.7c0.5,0.2,0.8,0.7,0.6,1.2c0,0,0,0,0,0c0,0.4-0.4,0.7-0.9,0.7c-0.1,0-0.2,0-0.3-0.1
			c-0.5-0.1-0.7-0.6-0.6-1.1c0,0,0-0.1,0-0.1C33.2,52.9,33.7,52.6,34.2,52.7"/>
		<path class="st1" d="M39.1,52.3c0.4,0.1,0.7,0.5,0.5,1c0,0,0,0.1,0,0.1c-0.2,0.4-0.6,0.6-1,0.5c-0.4-0.2-0.6-0.6-0.5-1
			C38.2,52.4,38.6,52.2,39.1,52.3C39.1,52.3,39.1,52.3,39.1,52.3"/>
		<path class="st1" d="M36.5,51.4c0.4,0.1,0.7,0.5,0.5,1c0,0,0,0.1,0,0.1c-0.1,0.4-0.4,0.6-0.8,0.6c-0.1,0-0.1,0-0.2,0
			c-0.4-0.1-0.7-0.5-0.6-0.9c0,0,0,0,0,0C35.6,51.6,36,51.3,36.5,51.4"/>
		<path class="st1" d="M41,50.9c0.4,0.1,0.6,0.5,0.5,0.8c0,0,0,0,0,0c-0.2,0.3-0.5,0.5-0.9,0.4c-0.4-0.1-0.5-0.5-0.4-0.9
			C40.3,51,40.6,50.8,41,50.9C40.9,50.9,41,50.9,41,50.9"/>
		<path class="st1" d="M38.4,50.2c0.4,0.1,0.5,0.5,0.4,0.9c-0.1,0.4-0.5,0.5-0.9,0.4c-0.4-0.1-0.5-0.5-0.4-0.9
			C37.7,50.3,38,50.1,38.4,50.2"/>
		<path class="st1" d="M42.5,49.6c0.3,0.1,0.4,0.4,0.3,0.7c-0.1,0.3-0.4,0.4-0.7,0.3c-0.3-0.1-0.4-0.4-0.4-0.6c0,0,0,0,0-0.1
			C42,49.6,42.2,49.5,42.5,49.6"/>
		<path class="st1" d="M39.9,48.9c0.3,0.1,0.4,0.4,0.4,0.6c0,0,0,0,0,0.1c-0.1,0.3-0.3,0.4-0.6,0.3c-0.3-0.1-0.4-0.3-0.3-0.7
			C39.4,49,39.7,48.8,39.9,48.9"/>
		<path class="st1" d="M3.4,39.2c1.1,0.4,1.6,1.5,1.3,2.6c-0.3,1-1.4,1.7-2.4,1.4c-1.1-0.3-1.7-1.5-1.4-2.6c0,0,0,0,0,0
			C1.2,39.6,2.3,39,3.4,39.2"/>
		<path class="st1" d="M4.1,46c1.1,0.3,1.7,1.5,1.4,2.6c0,0,0,0,0,0C5.1,49.6,4,50.2,3,50c-1.1-0.4-1.6-1.5-1.3-2.6
			C1.9,46.3,3,45.7,4.1,46"/>
		<path class="st1" d="M4.9,52.8c1.1,0.4,1.6,1.5,1.3,2.6c-0.3,1-1.3,1.6-2.3,1.4c-0.1,0-0.1,0-0.2-0.1c-1-0.3-1.6-1.3-1.4-2.3
			c0-0.1,0-0.1,0.1-0.2C2.7,53.1,3.8,52.5,4.9,52.8"/>
		<path class="st1" d="M43.8,48.5c0.2,0,0.3,0.2,0.3,0.4c0,0,0,0,0,0c0,0.2-0.3,0.4-0.5,0.4c0,0,0,0,0,0c-0.2-0.1-0.3-0.3-0.3-0.5
			c0-0.2,0.2-0.3,0.4-0.3C43.7,48.5,43.8,48.5,43.8,48.5"/>
		<path class="st1" d="M41.3,47.6c0.2,0.1,0.4,0.3,0.3,0.5s-0.3,0.4-0.5,0.3c-0.2-0.1-0.4-0.3-0.3-0.5c0,0,0,0,0,0
			C40.9,47.6,41.1,47.5,41.3,47.6"/>
		<path class="st2" d="M41.8,94c0,3.1-1.9,4.8-4.1,4.8c-2.2,0-4-1.9-4-4.6s1.7-4.7,4.1-4.7S41.8,91.3,41.8,94 M35,94.2
			c0,1.9,1,3.6,2.8,3.6s2.9-1.7,2.9-3.7c0-2-1-3.6-2.9-3.6C35.8,90.4,35,92.2,35,94.2"/>
		<polygon class="st2" points="49,90.6 46.3,90.6 46.3,89.7 52.8,89.7 52.8,90.6 50.1,90.6 50.1,98.6 49,98.6 		"/>
		<polygon class="st2" points="62.7,94.4 59.3,94.4 59.3,97.7 63.1,97.7 63.1,98.6 58.2,98.6 58.2,89.7 62.9,89.7 62.9,90.6 
			59.3,90.6 59.3,93.4 62.7,93.4 		"/>
		<path class="st2" d="M75.1,98.3c-0.7,0.3-1.5,0.4-2.3,0.4c-2.4,0-4.3-1.6-4.3-4.6c-0.1-2.4,1.7-4.5,4.2-4.7c0.1,0,0.3,0,0.4,0
			c0.7,0,1.4,0.1,2.1,0.4l-0.3,0.9c-0.6-0.2-1.1-0.3-1.7-0.3c-2.1,0-3.5,1.4-3.5,3.7s1.2,3.6,3.4,3.6c0.6,0,1.3-0.1,1.8-0.3
			L75.1,98.3z"/>
		<path class="st2" d="M28.7,98.3c-0.7,0.3-1.5,0.4-2.3,0.4c-2.5,0-4.3-1.6-4.3-4.6c-0.1-2.4,1.7-4.5,4.2-4.7c0.1,0,0.3,0,0.4,0
			c0.7,0,1.4,0.1,2.1,0.4l-0.3,0.9c-0.5-0.2-1.1-0.4-1.7-0.3c-2.1,0-3.4,1.4-3.4,3.7s1.2,3.6,3.3,3.6c0.7,0,1.3-0.1,1.9-0.3
			L28.7,98.3z"/>
		<polygon class="st2" points="2.7,90.6 0,90.6 0,89.7 6.5,89.7 6.5,90.6 3.8,90.6 3.8,98.6 2.7,98.6 		"/>
		<polygon class="st2" points="16.4,94.4 13,94.4 13,97.7 16.8,97.7 16.8,98.6 11.8,98.6 11.8,89.7 16.6,89.7 16.6,90.6 13,90.6 
			13,93.4 16.4,93.4 		"/>
		<path class="st2" d="M10.9,106.4c0-0.3,0.1-0.6,0.1-0.8l0.2-0.8c0-1.1,1-2,2.1-1.9c0,0,0,0,0,0c1.5,0,1.8,1.3,1.7,2.3l-0.2,0.7
			h-3.1c-0.1,0.1-0.1,0.3-0.1,0.4c-0.1,0.7,0.4,1.3,1,1.4c0.1,0,0.1,0,0.2,0c0.5,0,0.9-0.3,1.1-0.7h0.7c-0.2,0.9-1,1.5-1.9,1.4
			c-1,0-1.8-0.8-1.8-1.8C10.9,106.5,10.9,106.5,10.9,106.4 M14.3,105.1c0.1-0.8-0.3-1.5-1.1-1.5c-0.7,0-1.2,0.5-1.3,1.2v0.3
			L14.3,105.1L14.3,105.1z"/>
		<polygon class="st2" points="16,105.8 16.1,105.1 19,105.1 18.9,105.8 		"/>
		<path class="st2" d="M20.9,104.9c0,0.2-0.1,0.6-0.1,0.9c0,0.3,0.8,1.9,1.6,1.9c0.8,0.1,1.4-0.5,1.6-1.2h0.7v0.3
			c-0.2,1-1.2,1.8-2.3,1.7c-1.2,0-2.3-0.8-2.3-2.7V105l0.3-1.2c0.3-1.7,1.3-2.6,2.5-2.6c1.2,0,2.2,0.9,2.3,2.1c0,0,0,0,0,0v0.2h-0.8
			c0-0.8-0.6-1.4-1.4-1.4c0,0-0.1,0-0.1,0c-1,0-1.6,0.8-1.8,2L20.9,104.9z"/>
		<path class="st2" d="M26,104.9c0-1.1,0.9-2,2-2c1.1-0.1,1.9,0.8,2,1.8c0,0.1,0,0.2,0,0.3c0,0.2,0,0.5-0.1,0.7v0.7c0,1.1-0.9,2-2,2
			c0,0-0.1,0-0.1,0c-1,0.1-1.9-0.7-1.9-1.7c0-0.1,0-0.2,0-0.3c0-0.3,0-0.5,0.1-0.8L26,104.9z M26.6,105.7c-0.1,0.2-0.1,0.3-0.1,0.5
			c-0.1,0.7,0.4,1.4,1.1,1.5c0.1,0,0.1,0,0.2,0c0.7,0,1.2-0.5,1.3-1.5v-0.7c0.3-0.7-0.1-1.5-0.8-1.8c-0.1-0.1-0.3-0.1-0.5-0.1
			c-0.6,0-1.1,0.4-1.3,1.4L26.6,105.7z"/>
		<path class="st2" d="M31.8,103h0.8l-0.2,0.9h0.1c0.2-0.7,0.9-1.2,1.7-1c0.5,0.1,0.9,0.5,1,1l0,0c0.2-0.6,0.8-1,1.5-1
			c0.8,0,1.4,0.6,1.4,1.4c0,0.1,0,0.1,0,0.2c0,0.3-0.1,0.7-0.1,1l-0.5,2.9h-0.7l0.4-3c0.1-0.2,0.1-0.4,0.1-0.6
			c0-0.7-0.2-1.1-0.9-1.1s-1.1,0.6-1.2,1.6l-0.5,3.1h-0.8l0.5-3c0-0.2,0.1-0.4,0.1-0.6c0-0.2-0.3-1.1-0.9-1.1s-1.3,0.7-1.4,1.6
			l-0.5,3.1H31L31.8,103z"/>
		<path class="st2" d="M39.9,103h0.7l-0.2,0.9h0.1c0.2-0.6,0.7-1,1.3-1c0.6-0.1,1.2,0.3,1.4,1l0,0c0.2-0.6,0.8-1,1.5-1
			c0.8,0,1.4,0.6,1.4,1.4c0,0.1,0,0.1,0,0.2c0,0.3,0,0.6-0.1,1l-0.4,2.9h-0.8l0.5-3v-0.6c0-0.7-0.2-1.1-0.8-1.1s-1.1,0.6-1.3,1.6
			l-0.5,3.1H42l0.4-3c0.1-0.2,0.1-0.4,0.1-0.6c0-0.6-0.2-1.1-0.9-1.1c-0.7,0-1.2,0.7-1.4,1.6l-0.5,3.1h-0.7L39.9,103z"/>
		<path class="st2" d="M47.3,106.4v-0.8l0.2-0.8c0-1.1,1-2,2.1-1.9c0,0,0,0,0,0c1,0,1.8,0.9,1.8,1.9c0,0.1,0,0.3-0.1,0.4v0.7H48
			c0,0.1-0.1,0.3-0.1,0.4c-0.1,0.7,0.4,1.3,1,1.4c0.1,0,0.1,0,0.2,0c0.5,0,0.9-0.2,1.1-0.7H51c-0.2,1-1.1,1.7-2.1,1.5
			C47.8,108.4,47.1,107.4,47.3,106.4L47.3,106.4 M50.6,105.1c0.2-0.6-0.1-1.2-0.7-1.4c-0.1,0-0.2-0.1-0.3-0.1
			c-0.7,0-1.3,0.5-1.4,1.2v0.3L50.6,105.1L50.6,105.1z"/>
		<path class="st2" d="M53,103h0.7l-0.2,0.9h0.1c0.2-0.6,0.8-1,1.4-1h0.3l-0.2,0.8h-0.3c-0.9,0-1.3,0.8-1.5,1.6l-0.4,3h-0.8L53,103z
			"/>
		<path class="st2" d="M55.9,105.6l0.2-0.8c0-1.1,0.9-1.9,1.9-1.9c0,0,0.1,0,0.1,0c0.9-0.1,1.7,0.6,1.8,1.5c0,0.1,0,0.1,0,0.2h-0.7
			c0-0.6-0.5-1-1.1-1c0,0,0,0,0,0c-0.7,0-1.3,0.7-1.3,1.4l-0.2,0.6v0.6c0,1,0.4,1.5,1.2,1.5c0.5,0.1,0.9-0.2,1-0.7h0.8
			c-0.2,0.9-1,1.5-1.9,1.4c-1,0-1.8-0.8-1.8-1.8c0-0.1,0-0.1,0-0.2V105.6"/>
		<path class="st2" d="M60.8,106.4v-0.8l0.2-0.8c0.1-1.1,1-1.9,2.1-1.9c1,0,1.8,0.9,1.8,1.9c0,0.1,0,0.3-0.1,0.4v0.7h-3.3v0.4
			c0,0.7,0.3,1.4,1.1,1.4c0.5,0,0.9-0.2,1.1-0.7h0.7c-0.2,0.9-1,1.4-1.8,1.4c-1,0-1.8-0.8-1.8-1.8C60.8,106.5,60.8,106.5,60.8,106.4
			 M64.1,105.1c0.2-0.6-0.1-1.2-0.7-1.4c-0.1,0-0.2-0.1-0.3-0.1c-0.7,0-1.3,0.5-1.4,1.2v0.3L64.1,105.1L64.1,105.1z"/>
	</g>
</g>
</svg>
